# This file uses centimeters as units for non-parametric coordinates.

mtllib CupBoard.mtl
g default
v -1.086917 -0.101802 0.338323
v 1.086917 -0.101802 0.338323
v -1.086917 3.256660 0.338323
v 1.086917 3.256660 0.338323
v -1.086917 3.256660 -0.338323
v 1.086917 3.256660 -0.338323
v -1.086917 -0.101802 -0.338323
v 1.086917 -0.101802 -0.338323
v -1.086917 3.057955 0.338323
v -1.086917 3.057955 -0.338323
v 1.086917 3.057955 -0.338323
v 1.086917 3.057955 0.338323
v -0.875813 -0.101802 -0.338323
v -0.875813 -0.101802 0.338323
v -0.875813 3.057955 0.338323
v -0.875813 3.256660 0.338323
v -0.875813 3.256660 -0.338323
v -0.875813 3.057955 -0.338323
v -1.086917 0.105537 0.338323
v -1.086917 0.105537 -0.338323
v -0.875813 0.105537 -0.338323
v 1.086917 0.105537 -0.338323
v 1.086917 0.105537 0.338323
v -0.875813 0.105537 0.338323
v 0.623098 -0.101802 0.338323
v 0.623098 0.105537 0.338323
v 0.623098 3.057955 0.338323
v 0.623098 3.256660 0.338323
v 0.623098 3.256660 -0.338323
v 0.623098 3.057955 -0.338323
v 0.623098 0.105537 -0.338323
v 0.623098 -0.101802 -0.338323
v -1.086917 0.105537 -0.560647
v -0.875813 0.105537 -0.560647
v -0.875813 -0.101802 -0.560647
v -1.086917 -0.101802 -0.560647
v -1.086917 3.256660 -0.560647
v -0.875813 3.256660 -0.560647
v -0.875813 3.057955 -0.560647
v -1.086917 3.057955 -0.560647
v 0.623098 3.256660 -0.560647
v 0.623098 3.057955 -0.560647
v 0.623098 0.105537 -0.560647
v 0.623098 -0.101802 -0.560647
v 1.086917 3.256660 -0.560647
v 1.086917 3.057955 -0.560647
v 1.086917 0.105537 -0.560647
v 1.086917 -0.101802 -0.560647
v 0.623098 0.808703 0.338323
v 0.623098 0.808703 -0.338323
v -0.875813 0.808703 -0.338323
v -0.875813 0.808703 0.338323
v -1.086917 0.808703 0.338323
v -1.086917 0.808703 -0.338323
v -1.086917 0.808703 -0.560647
v -0.875813 0.808703 -0.560647
v 0.623098 0.808703 -0.560647
v 1.086917 0.808703 -0.560647
v 1.086917 0.808703 -0.338323
v 1.086917 0.808703 0.338323
v -1.086917 0.610860 0.338323
v -1.086917 0.610860 -0.338323
v -1.086917 0.610860 -0.560647
v -0.875813 0.610860 -0.560647
v 0.623098 0.610860 -0.560647
v 1.086917 0.610860 -0.560647
v 1.086917 0.610860 -0.338323
v 1.086917 0.610860 0.338323
v 0.623098 0.610860 0.338323
v 0.623098 0.610860 -0.338323
v -0.875813 0.610860 -0.338323
v -0.875813 0.610860 0.338323
v -0.875813 3.057955 0.201237
v -0.875813 0.808703 0.201237
v -0.875813 0.610860 0.201237
v -0.875813 0.105537 0.201237
v 0.623098 0.105537 0.201237
v 0.623098 0.610860 0.201237
v 0.623098 0.808703 0.201237
v 0.623098 3.057955 0.201237
vt 0.375000 0.000000
vt 0.625000 0.000000
vt 0.375000 0.250000
vt 0.625000 0.250000
vt 0.375000 0.500000
vt 0.625000 0.500000
vt 0.375000 0.750000
vt 0.625000 0.750000
vt 0.375000 1.000000
vt 0.625000 1.000000
vt 0.875000 0.000000
vt 0.875000 0.250000
vt 0.125000 0.000000
vt 0.125000 0.250000
vt 0.375000 0.235209
vt 0.125000 0.235209
vt 0.375000 0.514791
vt 0.625000 0.514791
vt 0.875000 0.235209
vt 0.625000 0.235209
vt 0.399278 0.750000
vt 0.399278 0.000000
vt 0.399278 1.000000
vt 0.399278 0.235209
vt 0.399278 0.250000
vt 0.399278 0.500000
vt 0.399278 0.514791
vt 0.375000 0.015434
vt 0.125000 0.015434
vt 0.375000 0.734566
vt 0.399278 0.734566
vt 0.625000 0.734566
vt 0.875000 0.015434
vt 0.625000 0.015434
vt 0.399278 0.015434
vt 0.599465 0.000000
vt 0.599465 1.000000
vt 0.599465 0.015434
vt 0.599465 0.235209
vt 0.599465 0.250000
vt 0.599465 0.500000
vt 0.599465 0.514791
vt 0.599465 0.734566
vt 0.599465 0.750000
vt 0.399278 0.750000
vt 0.375000 0.750000
vt 0.375000 0.734566
vt 0.375000 0.500000
vt 0.399278 0.500000
vt 0.375000 0.514791
vt 0.599465 0.500000
vt 0.599465 0.514791
vt 0.399278 0.514791
vt 0.399278 0.734566
vt 0.599465 0.734566
vt 0.599465 0.750000
vt 0.625000 0.500000
vt 0.625000 0.514791
vt 0.625000 0.734566
vt 0.625000 0.750000
vt 0.599465 0.086092
vt 0.599465 0.663908
vt 0.399278 0.663908
vt 0.399278 0.086092
vt 0.375000 0.086092
vt 0.125000 0.086092
vt 0.375000 0.663908
vt 0.375000 0.663908
vt 0.399278 0.663908
vt 0.599465 0.663908
vt 0.625000 0.663908
vt 0.625000 0.663908
vt 0.875000 0.086092
vt 0.625000 0.086092
vt 0.375000 0.067999
vt 0.125000 0.067999
vt 0.375000 0.682001
vt 0.375000 0.682001
vt 0.399278 0.682001
vt 0.599465 0.682001
vt 0.625000 0.682001
vt 0.625000 0.682001
vt 0.875000 0.067999
vt 0.625000 0.067999
vt 0.599465 0.067999
vt 0.599465 0.682001
vt 0.399278 0.682001
vt 0.399278 0.067999
vt 0.399278 0.331373
vt 0.399278 0.284836
vt 0.399278 0.279190
vt 0.399278 0.262785
vt 0.599465 0.262785
vt 0.599465 0.279190
vt 0.599465 0.284836
vt 0.599465 0.331373
vn 0.000000 0.000000 1.000000
vn 0.000000 0.000000 1.000000
vn 0.000000 0.000000 1.000000
vn 0.000000 0.000000 1.000000
vn 0.000000 1.000000 0.000000
vn 0.000000 1.000000 0.000000
vn 0.000000 1.000000 0.000000
vn 0.000000 1.000000 0.000000
vn 0.000000 0.000000 -1.000000
vn 0.000000 0.000000 -1.000000
vn 0.000000 0.000000 -1.000000
vn 0.000000 0.000000 -1.000000
vn 0.000000 -1.000000 0.000000
vn 0.000000 -1.000000 0.000000
vn 0.000000 -1.000000 0.000000
vn 0.000000 -1.000000 0.000000
vn 1.000000 0.000000 0.000000
vn 1.000000 0.000000 0.000000
vn 1.000000 0.000000 0.000000
vn 1.000000 0.000000 0.000000
vn -1.000000 0.000000 0.000000
vn -1.000000 0.000000 0.000000
vn -1.000000 0.000000 0.000000
vn -1.000000 0.000000 0.000000
vn -1.000000 0.000000 0.000000
vn -1.000000 0.000000 0.000000
vn -1.000000 0.000000 0.000000
vn -1.000000 0.000000 0.000000
vn 0.000000 0.000000 -1.000000
vn 0.000000 0.000000 -1.000000
vn 0.000000 0.000000 -1.000000
vn 0.000000 0.000000 -1.000000
vn 1.000000 0.000000 0.000000
vn 1.000000 0.000000 0.000000
vn 1.000000 0.000000 0.000000
vn 1.000000 0.000000 0.000000
vn 0.000000 0.000000 1.000000
vn 0.000000 0.000000 1.000000
vn 0.000000 0.000000 1.000000
vn 0.000000 0.000000 1.000000
vn 0.000000 -1.000000 0.000000
vn 0.000000 -1.000000 0.000000
vn 0.000000 0.000000 1.000000
vn 0.000000 0.000000 1.000000
vn 0.000000 0.000000 1.000000
vn 0.000000 0.000000 1.000000
vn 0.000000 1.000000 0.000000
vn 0.000000 1.000000 0.000000
vn 0.000000 0.000000 -1.000000
vn 0.000000 0.000000 -1.000000
vn 0.000000 0.000000 -1.000000
vn 0.000000 0.000000 -1.000000
vn -1.000000 0.000000 0.000000
vn -1.000000 0.000000 0.000000
vn 0.000000 0.000000 -1.000000
vn 0.000000 0.000000 -1.000000
vn 1.000000 0.000000 0.000000
vn 1.000000 0.000000 0.000000
vn 0.000000 0.000000 1.000000
vn 0.000000 0.000000 1.000000
vn 0.000000 0.000000 1.000000
vn 0.000000 0.000000 1.000000
vn 0.000000 0.000000 1.000000
vn 0.000000 0.000000 1.000000
vn 0.000000 0.000000 1.000000
vn 0.000000 0.000000 1.000000
vn 0.000000 1.000000 0.000000
vn 0.000000 1.000000 0.000000
vn 0.000000 0.000000 -1.000000
vn 0.000000 0.000000 -1.000000
vn 0.000000 0.000000 -1.000000
vn 0.000000 0.000000 -1.000000
vn 0.000000 0.000000 -1.000000
vn 0.000000 0.000000 -1.000000
vn 0.000000 -1.000000 0.000000
vn 0.000000 -1.000000 0.000000
vn 0.000000 1.000000 0.000000
vn 0.000000 1.000000 0.000000
vn 0.000000 1.000000 0.000000
vn 0.000000 1.000000 0.000000
vn 1.000000 0.000000 -0.000000
vn 1.000000 0.000000 0.000000
vn 1.000000 0.000000 0.000000
vn 1.000000 0.000000 -0.000000
vn -1.000000 0.000000 0.000000
vn -1.000000 0.000000 0.000000
vn -1.000000 0.000000 0.000000
vn -1.000000 0.000000 0.000000
vn 0.000000 -1.000000 0.000000
vn 0.000000 -1.000000 0.000000
vn 0.000000 -1.000000 0.000000
vn 0.000000 -1.000000 0.000000
vn -1.000000 0.000000 0.000000
vn -1.000000 0.000000 0.000000
vn -1.000000 0.000000 0.000000
vn -1.000000 0.000000 0.000000
vn 0.000000 1.000000 0.000000
vn 0.000000 1.000000 0.000000
vn 0.000000 1.000000 0.000000
vn 0.000000 1.000000 0.000000
vn -1.000000 0.000000 0.000000
vn -1.000000 0.000000 0.000000
vn -1.000000 0.000000 0.000000
vn -1.000000 0.000000 0.000000
vn 0.000000 1.000000 0.000000
vn 0.000000 1.000000 0.000000
vn 0.000000 1.000000 0.000000
vn 0.000000 1.000000 0.000000
vn 0.000000 -1.000000 0.000000
vn 0.000000 -1.000000 0.000000
vn 0.000000 -1.000000 0.000000
vn 0.000000 -1.000000 0.000000
vn 0.000000 1.000000 0.000000
vn 0.000000 1.000000 0.000000
vn 0.000000 1.000000 0.000000
vn 0.000000 1.000000 0.000000
vn 0.000000 -1.000000 0.000000
vn 0.000000 -1.000000 0.000000
vn 0.000000 -1.000000 0.000000
vn 0.000000 -1.000000 0.000000
vn -1.000000 0.000000 0.000000
vn -1.000000 0.000000 0.000000
vn -1.000000 0.000000 0.000000
vn -1.000000 0.000000 0.000000
vn 0.000000 1.000000 0.000000
vn 0.000000 1.000000 0.000000
vn 0.000000 1.000000 0.000000
vn 0.000000 1.000000 0.000000
vn 1.000000 0.000000 0.000000
vn 1.000000 0.000000 0.000000
vn 1.000000 0.000000 0.000000
vn 1.000000 0.000000 0.000000
vn 1.000000 0.000000 0.000000
vn 1.000000 0.000000 0.000000
vn 1.000000 0.000000 0.000000
vn 1.000000 0.000000 0.000000
vn 1.000000 0.000000 0.000000
vn 1.000000 0.000000 0.000000
vn 1.000000 0.000000 0.000000
vn 1.000000 0.000000 0.000000
vn 0.000000 -1.000000 0.000000
vn 0.000000 -1.000000 0.000000
vn 0.000000 -1.000000 0.000000
vn 0.000000 -1.000000 0.000000
vn 0.000000 -1.000000 0.000000
vn 0.000000 -1.000000 0.000000
vn 0.000000 -1.000000 0.000000
vn 0.000000 -1.000000 0.000000
vn 0.000000 1.000000 0.000000
vn 0.000000 1.000000 0.000000
vn 0.000000 1.000000 0.000000
vn 0.000000 1.000000 0.000000
vn 0.000000 0.000000 1.000000
vn 0.000000 0.000000 1.000000
vn 0.000000 0.000000 1.000000
vn 0.000000 0.000000 1.000000
vn -1.000000 0.000000 0.000000
vn -1.000000 0.000000 0.000000
vn -1.000000 0.000000 0.000000
vn -1.000000 0.000000 0.000000
vn 0.000000 0.000000 1.000000
vn 0.000000 0.000000 1.000000
vn 0.000000 0.000000 1.000000
vn 0.000000 0.000000 1.000000
vn 1.000000 0.000000 -0.000000
vn 1.000000 0.000000 0.000000
vn 1.000000 0.000000 0.000000
vn 1.000000 0.000000 -0.000000
vn 0.000000 0.000000 1.000000
vn 0.000000 0.000000 1.000000
vn -1.000000 0.000000 0.000000
vn -1.000000 0.000000 0.000000
vn -1.000000 0.000000 0.000000
vn -1.000000 0.000000 0.000000
vn -1.000000 0.000000 0.000000
vn -1.000000 0.000000 0.000000
vn 0.000000 0.000000 -1.000000
vn 0.000000 0.000000 -1.000000
vn 0.000000 0.000000 -1.000000
vn 0.000000 0.000000 -1.000000
vn 1.000000 0.000000 0.000000
vn 1.000000 0.000000 0.000000
vn 1.000000 0.000000 0.000000
vn 1.000000 0.000000 0.000000
vn 1.000000 0.000000 0.000000
vn 1.000000 0.000000 0.000000
vn 0.000000 0.000000 1.000000
vn 0.000000 0.000000 1.000000
vn 1.000000 0.000000 -0.000000
vn 1.000000 0.000000 -0.000000
vn 1.000000 0.000000 -0.000000
vn 1.000000 0.000000 -0.000000
vn 0.000000 1.000000 0.000000
vn 0.000000 1.000000 0.000000
vn -1.000000 0.000000 0.000000
vn -1.000000 0.000000 0.000000
vn -1.000000 0.000000 0.000000
vn -1.000000 0.000000 0.000000
vn 0.000000 -1.000000 -0.000001
vn 0.000000 -1.000000 -0.000001
vn 0.000000 -1.000000 -0.000001
vn 0.000000 -1.000000 -0.000001
vn 0.000000 -1.000000 0.000000
vn 0.000000 -1.000000 0.000000
vn 0.000000 -1.000000 0.000000
vn 0.000000 -1.000000 0.000000
vn 0.000000 -1.000000 0.000000
vn 0.000000 -1.000000 0.000000
vn 0.000000 1.000000 0.000000
vn 0.000000 1.000000 0.000000
vn 0.000000 1.000000 0.000000
vn 0.000000 1.000000 0.000000
vn 0.000000 0.000000 -1.000000
vn 0.000000 0.000000 -1.000000
vn 0.000000 0.000000 -1.000000
vn 0.000000 0.000000 -1.000000
vn 1.000000 0.000000 0.000000
vn 1.000000 0.000000 0.000000
vn 1.000000 0.000000 0.000000
vn 1.000000 0.000000 0.000000
vn 0.000000 0.000000 1.000000
vn 0.000000 0.000000 1.000000
vn 0.000000 0.000000 1.000000
vn 0.000000 0.000000 1.000000
vn -1.000000 0.000000 0.000000
vn -1.000000 0.000000 0.000000
vn -1.000000 0.000000 0.000000
vn -1.000000 0.000000 0.000000
vn 0.000000 0.000000 -1.000000
vn 0.000000 0.000000 -1.000000
s 1
g pCube1
usemtl lambert2SG
f 1/1/1 14/22/2 24/35/3 19/28/4
s 2
f 3/3/5 16/25/6 17/26/7 5/5/8
s 3
f 33/47/9 34/31/10 35/45/11 36/46/12
s 4
f 7/7/13 13/21/14 14/23/15 1/9/16
s 5
f 2/2/17 8/11/18 22/33/19 23/34/20
s 6
f 7/13/21 1/1/22 19/28/23 20/29/24
f 10/16/25 9/15/26 3/3/27 5/14/28
s 3
f 37/48/29 38/49/30 39/27/31 40/50/32
s 5
f 12/20/33 11/19/34 6/12/35 4/4/36
s 1
f 9/15/37 15/24/38 16/25/39 3/3/40
s 4
f 13/21/14 32/44/41 25/37/42 14/23/15
s 1
f 24/35/3 14/22/2 25/36/43 26/38/44
f 16/25/39 15/24/38 27/39/45 28/40/46
s 2
f 17/26/7 16/25/6 28/40/47 29/41/48
s 3
f 39/53/31 38/49/30 41/51/49 42/52/50
f 35/45/11 34/54/10 43/55/51 44/56/52
s 6
f 20/29/24 19/28/23 61/75/53 62/76/54
s 3
f 63/78/55 64/79/56 34/54/10 33/47/9
s 5
f 23/34/20 22/33/19 67/83/57 68/84/58
s 1
f 19/28/4 24/35/3 72/88/59 61/75/60
f 26/38/44 25/36/43 2/2/61 23/34/62
f 68/84/63 69/85/64 26/38/44 23/34/62
f 28/40/46 27/39/45 12/20/65 4/4/66
s 2
f 29/41/48 28/40/47 4/4/67 6/6/68
s 3
f 42/52/50 41/51/49 45/57/69 46/58/70
f 47/59/71 43/55/51 65/80/72 66/81/73
f 44/56/52 43/55/51 47/59/71 48/60/74
s 4
f 25/37/42 32/44/41 8/8/75 2/10/76
s 11
f 31/43/77 21/31/78 76/92/79 77/93/80
s 12
f 76/92/81 21/31/82 71/87/83 75/91/84
s 13
f 31/43/85 77/93/86 78/94/87 70/86/88
s off
f 13/21/89 7/7/90 36/46/91 35/45/92
f 7/7/93 20/30/94 33/47/95 36/46/96
f 5/5/97 17/26/98 38/49/99 37/48/100
f 10/17/101 5/5/102 37/48/103 40/50/104
f 17/26/105 29/41/106 41/51/107 38/49/108
f 30/42/109 18/27/110 39/53/111 42/52/112
f 21/31/113 31/43/114 43/55/115 34/54/116
f 32/44/117 13/21/118 35/45/119 44/56/120
s 14
f 20/30/121 62/77/122 63/78/123 33/47/124
s off
f 29/41/125 6/6/126 45/57/127 41/51/128
f 6/6/129 11/18/130 46/58/131 45/57/132
s 15
f 67/82/133 22/32/134 47/59/135 66/81/136
s off
f 22/32/137 8/8/138 48/60/139 47/59/140
f 8/8/141 32/44/142 44/56/143 48/60/144
f 21/31/145 34/54/146 43/55/147 31/43/148
s 3
f 34/54/10 64/79/56 65/80/72 43/55/51
s off
f 39/53/149 18/27/150 30/42/151 42/52/152
s 16
f 71/87/153 21/31/154 31/43/155 70/86/156
s 17
f 50/62/157 79/95/158 80/96/159 30/42/160
s 18
f 18/27/161 51/63/162 50/62/163 30/42/164
s 19
f 74/90/165 51/63/166 18/27/167 73/89/168
s 1
f 53/65/169 52/64/170 15/24/38 9/15/37
s 6
f 54/66/171 53/65/172 9/15/26 10/16/25
s 14
f 55/68/173 54/67/174 10/17/175 40/50/176
s 3
f 40/50/32 39/53/31 56/69/177 55/68/178
f 57/70/179 56/69/177 39/53/31 42/52/50
f 58/71/180 57/70/179 42/52/50 46/58/70
s 15
f 11/18/181 59/72/182 58/71/183 46/58/184
s 5
f 60/74/185 59/73/186 11/19/34 12/20/33
s 1
f 27/39/45 49/61/187 60/74/188 12/20/65
s 6
f 62/76/54 61/75/53 53/65/172 54/66/171
s 14
f 63/78/123 62/77/122 54/67/174 55/68/173
s 3
f 55/68/178 56/69/177 64/79/56 63/78/55
f 65/80/72 64/79/56 56/69/177 57/70/179
f 66/81/73 65/80/72 57/70/179 58/71/180
s 15
f 59/72/182 67/82/133 66/81/136 58/71/183
s 5
f 68/84/58 67/83/57 59/73/186 60/74/185
s 1
f 60/74/188 49/61/187 69/85/64 68/84/63
s off
f 51/63/162 71/87/153 70/86/156 50/62/163
s 1
f 61/75/60 72/88/59 52/64/170 53/65/169
s off
f 52/64/189 74/90/165 73/89/168 15/24/190
s 12
f 24/35/191 76/92/81 75/91/84 72/88/192
s 11
f 77/93/80 76/92/79 24/35/193 26/38/194
s 13
f 78/94/87 77/93/86 26/38/195 69/85/196
s off
f 80/96/159 79/95/158 49/61/197 27/39/198
f 73/89/199 80/96/200 27/39/201 15/24/202
s 20
f 70/86/203 78/94/204 75/91/205 71/87/206
f 78/94/204 69/85/207 72/88/208 75/91/205
s 1
f 69/85/64 49/61/187 52/64/170 72/88/59
s off
f 49/61/209 79/95/210 74/90/211 52/64/212
s 16
f 50/62/213 70/86/214 71/87/215 51/63/216
s off
f 30/42/217 80/96/218 79/95/219 50/62/220
s 17
f 80/96/221 73/89/222 74/90/223 79/95/224
s 19
f 73/89/225 18/27/226 51/63/227 74/90/228
s 18
f 18/27/229 30/42/230 50/62/213 51/63/216
