# This file uses centimeters as units for non-parametric coordinates.

mtllib PCMonitor.mtl
g default
v -0.493522 2.404261 0.678191
v 0.230860 2.404261 0.678191
v -0.493522 3.352939 0.678191
v 0.230860 3.352939 0.678191
v -0.493522 3.352939 -0.688940
v 0.230860 3.352939 -0.688940
v -0.493522 2.404261 -0.688940
v 0.230860 2.404261 -0.688940
v 0.230860 3.280823 0.678191
v -0.493522 3.280823 0.678191
v -0.493522 3.280823 -0.688940
v 0.230860 3.280823 -0.688940
v 0.230860 2.476377 0.678191
v -0.493522 2.476377 0.678191
v -0.493522 2.476377 -0.688940
v 0.230860 2.476377 -0.688940
v 0.230860 3.352939 -0.636412
v -0.493522 3.352939 -0.636412
v -0.493522 3.280823 -0.636412
v -0.493522 2.476377 -0.636412
v -0.493522 2.404261 -0.636412
v 0.230860 2.404261 -0.636412
v 0.230860 2.476377 -0.636412
v 0.230860 3.280823 -0.636412
v 0.230860 3.352939 0.625663
v -0.493522 3.352939 0.625663
v -0.493522 3.280823 0.625663
v -0.493522 2.476377 0.625663
v -0.493522 2.404261 0.625663
v 0.230860 2.404261 0.625663
v 0.230860 2.476377 0.625663
v 0.230860 3.280823 0.625663
v 0.141090 2.493991 0.608049
v 0.130860 2.526372 0.575668
v 0.180855 2.476377 0.625663
v 0.130860 3.230828 0.575668
v 0.141090 3.263209 0.608049
v 0.180855 3.280823 0.625663
v 0.141090 2.493991 -0.618798
v 0.130860 2.526372 -0.586417
v 0.180855 2.476377 -0.636412
v 0.141090 3.263209 -0.618798
v 0.130860 3.230828 -0.586417
v 0.180855 3.280823 -0.636412
v -0.493522 0.000000 0.678191
v 0.600511 0.000000 0.678191
v -0.493522 1.789902 0.678191
v 0.600511 1.789902 0.678191
v -0.493522 1.789902 -0.688940
v 0.600511 1.789902 -0.688940
v -0.493522 0.000000 -0.688940
v 0.600511 0.000000 -0.688940
v -0.003967 1.789902 0.207105
v -0.003967 1.789902 -0.217854
v -0.368645 1.789902 0.207105
v -0.368645 1.789902 -0.217854
v -0.003967 2.689902 0.207105
v -0.003967 2.689902 -0.217854
v -0.368645 2.689902 -0.217854
v -0.368645 2.689902 0.207105
vt 0.375000 0.000000
vt 0.625000 0.000000
vt 0.375000 0.250000
vt 0.625000 0.250000
vt 0.375000 0.500000
vt 0.625000 0.500000
vt 0.375000 0.750000
vt 0.625000 0.750000
vt 0.375000 1.000000
vt 0.625000 1.000000
vt 0.875000 0.000000
vt 0.875000 0.250000
vt 0.125000 0.000000
vt 0.125000 0.250000
vt 0.625000 0.166667
vt 0.375000 0.166667
vt 0.125000 0.166667
vt 0.375000 0.583333
vt 0.625000 0.583333
vt 0.875000 0.166667
vt 0.625000 0.083333
vt 0.375000 0.083333
vt 0.125000 0.083333
vt 0.375000 0.666667
vt 0.625000 0.666667
vt 0.875000 0.083333
vt 0.625000 0.416667
vt 0.791667 0.250000
vt 0.208333 0.250000
vt 0.375000 0.416667
vt 0.208333 0.166667
vt 0.208333 0.083333
vt 0.208333 0.000000
vt 0.375000 0.833333
vt 0.625000 0.833333
vt 0.791667 0.000000
vt 0.625000 0.333333
vt 0.708333 0.250000
vt 0.291667 0.250000
vt 0.375000 0.333333
vt 0.291667 0.166667
vt 0.291667 0.083333
vt 0.291667 0.000000
vt 0.375000 0.916667
vt 0.625000 0.916667
vt 0.708333 0.000000
vt 0.708333 0.083333
vt 0.708333 0.166667
vt 0.791667 0.083333
vt 0.791667 0.166667
vt 0.709496 0.083333
vt 0.790504 0.083333
vt 0.708333 0.083333
vt 0.708333 0.085158
vt 0.708333 0.164842
vt 0.708333 0.166667
vt 0.709496 0.166667
vt 0.790504 0.166667
vt 0.788366 0.088512
vt 0.791667 0.085158
vt 0.791667 0.166667
vt 0.791667 0.164842
vt 0.711635 0.088512
vt 0.709496 0.085158
vt 0.711635 0.161488
vt 0.709496 0.164842
vt 0.790504 0.085158
vt 0.791667 0.083333
vt 0.788366 0.161488
vt 0.790504 0.164842
vt 0.375000 0.250000
vt 0.375000 0.000000
vt 0.625000 0.000000
vt 0.625000 0.250000
vt 0.375000 0.750000
vt 0.375000 0.500000
vt 0.625000 0.500000
vt 0.625000 0.750000
vt 0.375000 1.000000
vt 0.625000 1.000000
vt 0.875000 0.250000
vt 0.875000 0.000000
vt 0.125000 0.000000
vt 0.125000 0.250000
vt 0.458333 0.416667
vt 0.541667 0.416667
vt 0.541667 0.333333
vt 0.458333 0.333333
vt 0.541667 0.333333
vt 0.541667 0.416667
vt 0.625000 0.500000
vt 0.458333 0.333333
vn 0.000000 0.000000 1.000000
vn 0.000000 0.000000 1.000000
vn 0.000000 0.000000 1.000000
vn 0.000000 0.000000 1.000000
vn 0.000000 1.000000 0.000000
vn 0.000000 1.000000 0.000000
vn 0.000000 1.000000 0.000000
vn 0.000000 1.000000 0.000000
vn 0.000000 0.000000 -1.000000
vn 0.000000 0.000000 -1.000000
vn 0.000000 0.000000 -1.000000
vn 0.000000 0.000000 -1.000000
vn 0.000000 -1.000000 0.000000
vn 0.000000 -1.000000 0.000000
vn 0.000000 -1.000000 0.000000
vn 0.000000 -1.000000 0.000000
vn 1.000000 0.000000 0.000000
vn 1.000000 0.000000 0.000000
vn 1.000000 0.000000 0.000000
vn 1.000000 0.000000 0.000000
vn -1.000000 0.000000 0.000000
vn -1.000000 0.000000 0.000000
vn -1.000000 0.000000 0.000000
vn -1.000000 0.000000 0.000000
vn 0.000000 0.000000 1.000000
vn 0.000000 0.000000 1.000000
vn 0.000000 0.000000 1.000000
vn 0.000000 0.000000 1.000000
vn -1.000000 0.000000 0.000000
vn -1.000000 0.000000 0.000000
vn -1.000000 0.000000 0.000000
vn -1.000000 0.000000 0.000000
vn 0.000000 0.000000 -1.000000
vn 0.000000 0.000000 -1.000000
vn 0.000000 0.000000 -1.000000
vn 0.000000 0.000000 -1.000000
vn 1.000000 0.000000 0.000000
vn 1.000000 0.000000 0.000000
vn 1.000000 0.000000 0.000000
vn 1.000000 0.000000 0.000000
vn 0.000000 1.000000 0.000000
vn 0.000000 1.000000 0.000000
vn 0.000000 1.000000 0.000000
vn 0.000000 1.000000 0.000000
vn -1.000000 0.000000 0.000000
vn -1.000000 0.000000 0.000000
vn -1.000000 0.000000 0.000000
vn -1.000000 0.000000 0.000000
vn -1.000000 0.000000 0.000000
vn -1.000000 0.000000 0.000000
vn -1.000000 0.000000 0.000000
vn -1.000000 0.000000 0.000000
vn 0.000000 -1.000000 0.000000
vn 0.000000 -1.000000 0.000000
vn 0.000000 -1.000000 0.000000
vn 0.000000 -1.000000 0.000000
vn 1.000000 0.000000 0.000000
vn 1.000000 0.000000 0.000000
vn 1.000000 0.000000 0.000000
vn 1.000000 0.000000 0.000000
vn 1.000000 0.000000 0.000000
vn 1.000000 0.000000 0.000000
vn 1.000000 0.000000 0.000000
vn 1.000000 0.000000 0.000000
vn 0.000000 0.000000 -1.000000
vn 0.000000 0.000000 -1.000000
vn 0.161724 0.000000 -0.986836
vn 0.161724 0.000000 -0.986836
vn 0.000000 1.000000 0.000000
vn 0.000000 1.000000 0.000000
vn 0.162531 0.986704 0.000000
vn 0.162530 0.986704 0.000000
vn 0.000000 0.000000 1.000000
vn 0.000000 0.000000 1.000000
vn 0.161724 0.000000 0.986836
vn 0.161724 0.000000 0.986836
vn 0.000000 -1.000000 0.000000
vn 0.000000 -1.000000 0.000000
vn 0.162530 -0.986704 0.000000
vn 0.162531 -0.986704 0.000000
vn 0.999727 0.019900 0.012276
vn 0.999727 -0.019900 0.012276
vn 0.999727 -0.019900 -0.012276
vn 0.999727 0.019900 -0.012276
vn 0.953547 0.301244 0.000000
vn 0.953547 0.301244 0.000000
vn 0.404994 0.914319 0.000000
vn 0.404994 0.914319 0.000000
vn 0.404989 0.000000 -0.914322
vn 0.404989 0.000000 -0.914322
vn 0.953549 0.000000 -0.301239
vn 0.953549 0.000000 -0.301239
vn 0.404994 -0.914319 0.000000
vn 0.404994 -0.914319 0.000000
vn 0.953547 -0.301244 0.000000
vn 0.953547 -0.301244 0.000000
vn 0.953549 0.000000 0.301238
vn 0.953549 0.000000 0.301238
vn 0.404987 0.000000 0.914322
vn 0.404987 0.000000 0.914322
vn 0.000000 0.000000 1.000000
vn 0.000000 0.000000 1.000000
vn 0.000000 0.000000 1.000000
vn 0.000000 0.000000 1.000000
vn 0.000000 0.000000 -1.000000
vn 0.000000 0.000000 -1.000000
vn 0.000000 0.000000 -1.000000
vn 0.000000 0.000000 -1.000000
vn 0.000000 -1.000000 0.000000
vn 0.000000 -1.000000 0.000000
vn 0.000000 -1.000000 0.000000
vn 0.000000 -1.000000 0.000000
vn 1.000000 0.000000 0.000000
vn 1.000000 0.000000 0.000000
vn 1.000000 0.000000 0.000000
vn 1.000000 0.000000 0.000000
vn -1.000000 0.000000 0.000000
vn -1.000000 0.000000 0.000000
vn -1.000000 0.000000 0.000000
vn -1.000000 0.000000 0.000000
vn 0.000000 1.000000 0.000000
vn 0.000000 1.000000 0.000000
vn 0.000000 1.000000 0.000000
vn 0.000000 1.000000 0.000000
vn 0.000000 1.000000 0.000000
vn 0.000000 1.000000 0.000000
vn 0.000000 1.000000 0.000000
vn 0.000000 1.000000 0.000000
vn 0.000000 1.000000 0.000000
vn 0.000000 1.000000 0.000000
vn 0.000000 1.000000 0.000000
vn 0.000000 1.000000 0.000000
vn 1.000000 0.000000 0.000000
vn 1.000000 0.000000 0.000000
vn 1.000000 0.000000 0.000000
vn 1.000000 0.000000 0.000000
vn 0.000000 0.000000 -1.000000
vn 0.000000 0.000000 -1.000000
vn 0.000000 0.000000 -1.000000
vn 0.000000 0.000000 -1.000000
vn -1.000000 0.000000 0.000000
vn -1.000000 0.000000 0.000000
vn -1.000000 0.000000 0.000000
vn -1.000000 0.000000 0.000000
vn 0.000000 0.000000 1.000000
vn 0.000000 0.000000 1.000000
vn 0.000000 0.000000 1.000000
vn 0.000000 0.000000 1.000000
s 1
g polySurface1
usemtl lambert3SG
f 1/1/1 2/2/2 13/21/3 14/22/4
s 2
f 3/3/5 4/4/6 25/37/7 26/40/8
s 3
f 15/24/9 16/25/10 8/8/11 7/7/12
s 4
f 29/44/13 30/45/14 2/10/15 1/9/16
s 5
f 2/2/17 30/46/18 31/47/19 13/21/20
s 6
f 29/43/21 1/1/22 14/22/23 28/42/24
s 1
f 10/16/25 9/15/26 4/4/27 3/3/28
s 6
f 27/41/29 10/16/30 3/3/31 26/39/32
s 3
f 5/5/33 6/6/34 12/19/35 11/18/36
s 5
f 9/15/37 32/48/38 25/38/39 4/4/40
s 1
f 14/22/4 13/21/3 9/15/26 10/16/25
s 6
f 28/42/24 14/22/23 10/16/30 27/41/29
s 3
f 11/18/36 12/19/35 16/25/10 15/24/9
s 5
f 13/21/20 31/47/19 32/48/38 9/15/37
s 2
f 18/30/41 17/27/42 6/6/43 5/5/44
s 6
f 11/17/45 19/31/46 18/29/47 5/14/48
f 15/23/49 20/32/50 19/31/46 11/17/45
f 7/13/51 21/33/52 20/32/50 15/23/49
s 4
f 7/7/53 8/8/54 22/35/55 21/34/56
s 5
f 23/49/57 22/36/58 8/11/59 16/26/60
f 24/50/61 23/49/57 16/26/60 12/20/62
f 17/28/63 24/50/61 12/20/62 6/12/64
s 2
f 26/40/8 25/37/7 17/27/42 18/30/41
s 6
f 19/31/46 27/41/29 26/39/32 18/29/47
f 20/32/50 28/42/24 27/41/29 19/31/46
f 21/33/52 29/43/21 28/42/24 20/32/50
s 4
f 21/34/56 22/35/55 30/45/14 29/44/13
s 5
f 31/47/19 30/46/18 22/36/58 23/49/57
f 25/38/39 32/48/38 24/50/61 17/28/63
s 8
f 32/48/65 31/47/66 35/53/67 38/56/68
s 9
f 31/47/69 23/49/70 41/68/71 35/53/72
s 10
f 23/49/73 24/50/74 44/61/75 41/68/76
s 11
f 24/50/77 32/48/78 38/56/79 44/61/80
s 12
f 40/59/81 43/69/82 36/65/83 34/63/84
f 34/63/84 33/64/85 39/67/86 40/59/81
s 9
f 33/51/87 35/53/72 41/68/71 39/52/88
s 8
f 35/53/67 33/54/89 37/55/90 38/56/68
s 12
f 33/64/91 34/63/84 36/65/83 37/66/92
s 11
f 38/56/79 37/57/93 42/58/94 44/61/80
s 12
f 37/66/95 36/65/83 43/69/82 42/70/96
f 40/59/81 39/67/97 42/70/98 43/69/82
s 10
f 39/60/99 41/68/76 44/61/75 42/62/100
s off
f 47/71/101 45/72/102 46/73/103 48/74/104
f 51/75/105 49/76/106 50/77/107 52/78/108
f 45/79/109 51/75/110 52/78/111 46/80/112
f 50/81/113 48/74/114 46/73/115 52/82/116
f 51/83/117 45/72/118 47/71/119 49/84/120
f 50/77/121 49/76/122 47/71/123 48/74/124 56/85/125 54/86/126 53/87/127 55/88/128
f 57/89/129 58/90/130 59/91/131 60/92/132
f 53/87/133 54/86/134 58/90/135 57/89/136
f 54/86/137 56/77/138 59/91/139 58/90/140
f 56/77/141 55/88/142 60/92/143 59/91/144
f 55/88/145 53/87/146 57/89/147 60/92/148
