# This file uses centimeters as units for non-parametric coordinates.

mtllib Shell.mtl
g default
v -5.511539 0.121950 8.351993
v -6.891080 0.121950 6.972453
v -5.511539 10.121950 8.351993
v -6.891080 10.121950 6.972453
v -5.511539 10.121950 -8.288175
v -6.891080 10.121950 -6.908639
v -5.511539 0.121950 -8.288175
v -6.891080 0.121950 -6.908639
v 5.526163 10.121950 -8.288175
v 6.905704 10.121950 -6.908639
v 5.526163 0.121950 -8.288175
v 6.905704 0.121950 -6.908639
v 5.526163 0.121950 8.351993
v 6.905704 0.121950 6.972453
v 5.526163 10.121950 8.351993
v 6.905704 10.121950 6.972453
v 1.459365 0.121950 8.351993
v -1.453311 0.121950 8.351993
v -1.453311 2.715596 8.351993
v 1.459365 2.715596 8.351993
v -3.355733 0.121950 8.351993
v -3.355734 0.121950 -8.288175
v -0.791899 2.715596 8.351993
v -1.453311 2.055834 8.351993
v 3.411920 0.121950 8.351993
v 0.799138 2.715596 8.351993
v 1.459365 2.056029 8.351993
v 3.411920 0.121950 -8.288175
v 5.526163 5.721949 -8.288175
v 6.905704 5.721949 -6.908639
v 6.905704 5.721949 6.972453
v 5.526163 5.721949 8.351993
v -5.511539 5.721949 -8.288175
v -6.891080 5.721949 -6.908639
v -6.891080 5.721949 6.972453
v -5.511539 5.721949 8.351993
v -6.891080 0.121950 -0.800957
v -6.891080 5.721949 -0.800957
v -6.891080 10.121950 -0.800957
v 6.905704 10.121950 -0.800957
v 6.905704 5.721949 -0.800957
v 6.905704 0.121950 -0.800957
v 0.007312 10.121950 6.972453
v 0.007312 10.121950 -0.800957
v 0.007312 10.121950 -6.908639
vt 0.777423 0.964621
vt 0.635901 0.964621
vt 0.424788 0.964621
vt 0.286899 0.964621
vt 1.000000 -0.000000
vt 0.900010 -0.000000
vt 1.000000 1.000000
vt 1.000000 -0.000000
vt 0.000000 -0.000000
vt 0.900010 1.000000
vt 0.195313 -0.000000
vt 0.000000 -0.000000
vt 0.000000 1.000000
vt 0.000000 -0.000000
vt 1.000000 -0.000000
vt 0.099990 -0.000000
vt 0.000000 -0.000000
vt 0.000000 1.000000
vt 0.900010 -0.000000
vt 0.099990 -0.000000
vt 0.099990 1.000000
vt 0.000000 1.000000
vt 0.000000 -0.000000
vt 0.099990 1.000000
vt 1.000000 1.000000
vt 0.000000 1.000000
vt 0.000000 1.000000
vt 1.000000 1.000000
vt 1.000000 1.000000
vt 0.900010 1.000000
vt 1.000000 1.000000
vt 1.000000 -0.000000
vt 1.000000 -0.000000
vt 0.130645 0.964621
vt 0.808453 -0.000000
vt 0.030655 0.964621
vt 0.333333 0.250000
vt 0.666667 0.250000
vt 0.367670 -0.000000
vt 0.030655 0.964621
vt 0.030655 0.964621
vt 0.367670 0.193388
vt 0.409154 0.250000
vt 0.333333 0.184959
vt 0.427593 0.259365
vt 0.130645 0.964621
vt 0.589966 0.250000
vt 0.666667 0.185445
vt 0.286899 0.964621
vt 0.571738 0.259365
vt 0.631554 0.193408
vt 0.631554 -0.000000
vt 0.808453 -0.000000
vt 1.000000 -0.000000
vt 1.000000 1.000000
vt 0.000000 1.000000
vt 0.000000 -0.000000
vt 0.195313 -0.000000
vt 1.000000 0.560000
vt 0.900010 0.560000
vt 1.000000 0.560000
vt 1.000000 0.560000
vt 0.000000 0.560000
vt 1.000000 0.560000
vt 1.000000 0.560000
vt 0.900010 0.560000
vt 0.000000 0.560000
vt 0.099990 0.560000
vt 1.000000 0.560000
vt 0.000000 0.560000
vt 0.000000 0.560000
vt 0.000000 0.560000
vt 0.000000 0.560000
vt 0.099990 0.560000
vt 0.560000 -0.000000
vt 0.777423 0.964621
vt 0.560000 0.560000
vt 0.560000 1.000000
vt 0.560000 1.000000
vt 0.560000 0.560000
vt 0.930665 0.964621
vt 0.560000 -0.000000
vt 1.030655 0.964621
vt 1.030655 0.964621
vt 1.030655 0.964621
vt 0.930665 0.964621
vt 0.018522 0.401834
vt 0.018522 0.401834
vt 0.518522 0.401834
vt 0.500000 0.000000
vt 1.000000 0.000000
vt 0.900010 0.082904
vt 0.099990 0.082904
vt 0.000000 0.000000
vt 0.099990 0.000000
vt 0.900010 0.000000
vt 1.000000 0.082904
vt 0.500000 0.082904
vt 0.000000 0.082904
vt 0.518522 0.401834
vt 0.018522 0.401834
vt 0.518522 0.401834
vt 1.018522 0.401834
vt 1.018522 0.401834
vt 1.018522 0.401834
vn 0.000000 0.000000 -1.000000
vn 0.000000 0.000000 -1.000000
vn 0.000000 0.000000 -1.000000
vn 0.000000 0.000000 -1.000000
vn 0.000000 0.000000 -1.000000
vn 0.000000 0.000000 -1.000000
vn 0.000000 0.000000 -1.000000
vn 0.000000 0.000000 -1.000000
vn 1.000000 0.000000 0.000000
vn 1.000000 0.000000 0.000000
vn 1.000000 0.000000 0.000000
vn 1.000000 0.000000 0.000000
vn -1.000000 0.000000 0.000000
vn -1.000000 0.000000 0.000000
vn -1.000000 0.000000 0.000000
vn -1.000000 0.000000 0.000000
vn 0.000000 -1.000000 0.000000
vn 0.000000 -1.000000 0.000000
vn 0.000000 -1.000000 0.000000
vn 0.000000 -1.000000 -0.000000
vn 0.000000 -1.000000 -0.000000
vn 0.000000 -1.000000 -0.000000
vn 0.000000 -1.000000 0.000000
vn 0.000000 -1.000000 -0.000000
vn 0.000000 -1.000000 -0.000000
vn 0.000000 -1.000000 -0.000000
vn 0.000000 -1.000000 0.000000
vn 0.000000 -1.000000 0.000000
vn 0.000000 -1.000000 0.000000
vn 0.000000 -1.000000 0.000000
vn 0.000000 -1.000000 0.000000
vn 0.000000 -1.000000 0.000000
vn -0.707107 0.000000 0.707107
vn -0.707107 0.000000 0.707107
vn -0.707106 0.000000 0.707107
vn -0.707106 0.000000 0.707107
vn -0.707106 0.000000 -0.707108
vn -0.707106 0.000000 -0.707108
vn -0.707106 0.000000 -0.707108
vn -0.707105 0.000000 -0.707108
vn 0.707106 0.000000 -0.707108
vn 0.707105 0.000000 -0.707108
vn 0.707105 0.000000 -0.707108
vn 0.707105 0.000000 -0.707108
vn 0.707107 0.000000 0.707107
vn 0.707106 0.000000 0.707107
vn 0.707107 0.000000 0.707107
vn 0.707106 0.000000 0.707107
vn 0.000000 0.000000 1.000000
vn -0.000000 0.000000 1.000000
vn -0.000000 0.000000 1.000000
vn 0.000000 0.000000 1.000000
vn 0.000000 0.000000 1.000000
vn 0.000000 0.000000 1.000000
vn 0.000000 0.000000 1.000000
vn 0.000000 0.000000 1.000000
vn 0.000000 0.000000 1.000000
vn 0.000000 0.000000 1.000000
vn 0.000000 0.000000 1.000000
vn -0.000000 0.000000 1.000000
vn 0.000000 0.000000 1.000000
vn 0.000000 0.000000 1.000000
vn 0.000000 0.000000 -1.000000
vn 0.000000 0.000000 -1.000000
vn 0.000000 0.000000 -1.000000
vn 0.000000 0.000000 -1.000000
vn 0.000000 0.000000 -1.000000
vn 0.000000 0.000000 -1.000000
vn 0.707106 0.000000 -0.707108
vn 0.707106 0.000000 -0.707108
vn 1.000000 0.000000 0.000000
vn 1.000000 0.000000 0.000000
vn 1.000000 0.000000 0.000000
vn 0.707106 0.000000 0.707107
vn 0.707106 0.000000 0.707107
vn -0.707105 0.000000 -0.707108
vn -0.707105 0.000000 -0.707108
vn -1.000000 0.000000 0.000000
vn -1.000000 0.000000 0.000000
vn -1.000000 0.000000 0.000000
vn -0.707106 0.000000 0.707107
vn -0.707106 0.000000 0.707107
vn -1.000000 0.000000 0.000000
vn -1.000000 0.000000 0.000000
vn -1.000000 0.000000 0.000000
vn 1.000000 0.000000 0.000000
vn 1.000000 0.000000 0.000000
vn 1.000000 0.000000 0.000000
vn 0.000000 1.000000 0.000000
vn 0.000000 1.000000 0.000000
vn 0.000000 1.000000 0.000000
vn 0.000000 1.000000 0.000000
vn 0.000000 1.000000 0.000000
vn 0.000000 1.000000 0.000000
vn 0.000000 1.000000 0.000000
vn 0.000000 1.000000 0.000000
vn 0.000000 1.000000 0.000000
vn 0.000000 1.000000 0.000000
vn 0.000000 1.000000 0.000000
vn 0.000000 1.000000 0.000000
vn 0.000000 1.000000 0.000000
vn 0.000000 1.000000 0.000000
vn 0.000000 1.000000 0.000000
vn 0.000000 1.000000 0.000000
vn 0.000000 1.000000 0.000000
vn 0.000000 1.000000 0.000000
vn 0.000000 1.000000 0.000000
s 1
g pCube1
usemtl lambert3SG
f 7/12/1 33/67/2 22/11/3
f 5/27/4 9/28/5 33/67/2
f 9/28/5 29/59/6 33/67/2
f 33/67/2 29/59/6 22/11/3
f 11/33/7 28/35/8 29/59/6
f 22/11/3 29/59/6 28/35/8
s 3
f 12/15/9 30/61/10 42/82/11
f 42/82/11 30/61/10 41/80/12
s 4
f 6/7/13 34/69/14 39/78/15
f 39/78/15 34/69/14 38/77/16
s 5
f 2/36/17 37/40/18 1/34/19
f 1/34/19 37/40/18 21/4/20
f 21/4/20 37/40/18 18/3/21
f 18/3/21 37/40/18 17/2/22
f 8/41/23 7/46/24 37/40/18
f 7/46/24 22/49/25 37/40/18
f 37/40/18 22/49/25 17/2/22
f 22/49/25 28/76/26 17/2/22
f 17/2/22 28/76/26 25/1/27
f 25/1/27 28/76/26 13/86/28
f 13/86/28 28/76/26 14/85/29
f 14/85/29 28/76/26 42/84/30
f 28/76/26 11/81/31 42/84/30
f 11/81/31 12/83/32 42/84/30
s 7
f 3/24/33 4/26/34 36/74/35
f 36/74/35 4/26/34 35/72/36
s 8
f 33/68/37 34/70/38 5/21/39
f 5/21/39 34/70/38 6/22/40
s 9
f 29/60/41 30/62/42 11/19/43
f 11/19/43 30/62/42 12/32/44
s 10
f 13/6/45 14/5/46 32/66/47
f 32/66/47 14/5/46 31/64/48
s 11
f 18/39/49 24/42/50 21/58/51
f 17/52/52 25/53/53 27/51/54
f 13/54/55 32/65/56 25/53/53
f 25/53/53 32/65/56 27/51/54
f 27/51/54 32/65/56 26/50/57
f 15/55/58 3/56/59 32/65/56
f 3/56/59 36/73/60 32/65/56
f 32/65/56 36/73/60 26/50/57
f 26/50/57 36/73/60 23/45/61
f 1/57/62 21/58/51 36/73/60
f 21/58/51 24/42/50 36/73/60
f 24/42/50 23/45/61 36/73/60
s off
f 23/43/63 24/44/64 19/37/65
f 27/48/66 26/47/67 20/38/68
s 9
f 9/10/69 10/31/70 29/60/41
f 29/60/41 10/31/70 30/62/42
s 3
f 41/80/12 30/61/71 40/79/72
f 40/79/72 30/61/71 10/25/73
s 10
f 32/66/47 31/64/48 15/30/74
f 15/30/74 31/64/48 16/29/75
s 8
f 7/20/76 8/23/77 33/68/37
f 33/68/37 8/23/77 34/70/38
s 4
f 38/77/16 34/69/78 37/75/79
f 37/75/79 34/69/78 8/8/80
s 7
f 36/74/35 35/72/36 1/16/81
f 1/16/81 35/72/36 2/17/82
s 4
f 35/71/83 38/77/16 2/9/84
f 2/9/84 38/77/16 37/75/79
f 39/78/15 38/77/16 4/18/85
f 4/18/85 38/77/16 35/71/83
s 3
f 31/63/86 41/80/12 16/13/87
f 16/13/87 41/80/12 40/79/72
f 42/82/11 41/80/12 14/14/88
f 14/14/88 41/80/12 31/63/86
s 18
f 6/87/89 39/88/90 45/100/91
f 45/100/91 39/88/90 44/89/92
f 39/88/90 4/101/93 44/89/92
f 44/89/92 4/101/93 43/102/94
f 44/89/92 43/102/94 40/104/95
f 40/104/95 43/102/94 16/103/96
f 45/100/91 44/89/92 10/105/97
f 10/105/97 44/89/92 40/104/95
s 19
f 10/91/98 9/92/99 45/90/100
f 9/92/99 5/93/101 45/90/100
f 45/90/100 5/93/101 6/94/102
s 20
f 16/97/103 43/98/104 15/96/105
f 15/96/105 43/98/104 3/95/106
f 3/95/106 43/98/104 4/99/107
