# This file uses centimeters as units for non-parametric coordinates.

mtllib Back Wall.mtl
g default
v -45.000000 -5.500000 0.500000
v 45.000000 -5.500000 0.500000
v -45.000000 5.500000 0.500000
v 45.000000 5.500000 0.500000
v -45.000000 5.500000 -0.500000
v 45.000000 5.500000 -0.500000
v -45.000000 -5.500000 -0.500000
v 45.000000 -5.500000 -0.500000
vt 0.002693 0.001697
vt 0.998709 0.001697
vt 0.998709 0.456670
vt 0.002693 0.456670
vt 0.061518 0.520888
vt 0.066428 0.520888
vt 0.998709 0.544224
vt 0.002693 0.544224
vt 0.066428 0.466873
vt 0.061518 0.466873
vt 0.998709 1.004279
vt 0.002693 1.004279
vt 0.053544 0.520888
vt 0.058454 0.520888
vt 0.998709 1.178805
vt 0.002693 1.178805
vt 0.053544 0.466873
vt 0.058454 0.466873
vn 0.000000 0.000000 1.000000
vn 0.000000 0.000000 1.000000
vn 0.000000 0.000000 1.000000
vn 0.000000 0.000000 1.000000
vn 0.000000 1.000000 0.000000
vn 0.000000 1.000000 0.000000
vn 0.000000 1.000000 0.000000
vn 0.000000 1.000000 0.000000
vn 0.000000 0.000000 -1.000000
vn 0.000000 0.000000 -1.000000
vn 0.000000 0.000000 -1.000000
vn 0.000000 0.000000 -1.000000
vn 0.000000 -1.000000 0.000000
vn 0.000000 -1.000000 0.000000
vn 0.000000 -1.000000 0.000000
vn 0.000000 -1.000000 0.000000
vn 1.000000 0.000000 0.000000
vn 1.000000 0.000000 0.000000
vn 1.000000 0.000000 0.000000
vn 1.000000 0.000000 0.000000
vn -1.000000 0.000000 0.000000
vn -1.000000 0.000000 0.000000
vn -1.000000 0.000000 0.000000
vn -1.000000 0.000000 0.000000
s off
g pCube1
usemtl lambert2SG
f 1/1/1 2/2/2 4/3/3 3/4/4
f 3/4/5 4/3/6 6/7/7 5/8/8
f 5/8/9 6/7/10 8/11/11 7/12/12
f 7/12/13 8/11/14 2/15/15 1/16/16
f 2/17/17 8/18/18 6/14/19 4/13/20
f 7/10/21 1/9/22 3/6/23 5/5/24
g default
v -93.428704 -0.000000 -7.773733
v -92.955093 -0.000000 -7.773733
v -93.428704 0.000000 -7.773733
v -92.955093 0.000000 -7.773733
v -93.428704 0.000000 -7.788617
v -92.955093 0.000000 -7.788617
v -93.428704 -0.000000 -7.788617
v -92.955093 -0.000000 -7.788617
vt 0.375000 0.000000
vt 0.625000 0.000000
vt 0.375000 0.250000
vt 0.625000 0.250000
vt 0.375000 0.500000
vt 0.625000 0.500000
vt 0.375000 0.750000
vt 0.625000 0.750000
vt 0.375000 1.000000
vt 0.625000 1.000000
vt 0.875000 0.000000
vt 0.875000 0.250000
vt 0.125000 0.000000
vt 0.125000 0.250000
vn 0.000000 0.000000 1.000000
vn 0.000000 0.000000 1.000000
vn 0.000000 0.000000 1.000000
vn 0.000000 0.000000 1.000000
vn 0.000000 1.000000 0.000000
vn 0.000000 1.000000 0.000000
vn 0.000000 1.000000 0.000000
vn 0.000000 1.000000 0.000000
vn 0.000000 0.000000 -1.000000
vn 0.000000 0.000000 -1.000000
vn 0.000000 0.000000 -1.000000
vn 0.000000 0.000000 -1.000000
vn 0.000000 -1.000000 0.000000
vn 0.000000 -1.000000 0.000000
vn 0.000000 -1.000000 0.000000
vn 0.000000 -1.000000 0.000000
vn 1.000000 0.000000 0.000000
vn 1.000000 0.000000 0.000000
vn 1.000000 0.000000 0.000000
vn 1.000000 0.000000 0.000000
vn -1.000000 0.000000 0.000000
vn -1.000000 0.000000 0.000000
vn -1.000000 0.000000 0.000000
vn -1.000000 0.000000 0.000000
s off
g initialShadingGroup pCube3
f 9/19/25 10/20/26 12/22/27 11/21/28
f 11/21/29 12/22/30 14/24/31 13/23/32
f 13/23/33 14/24/34 16/26/35 15/25/36
f 15/25/37 16/26/38 10/28/39 9/27/40
f 10/20/41 16/29/42 14/30/43 12/22/44
f 15/31/45 9/19/46 11/21/47 13/32/48
