# This file uses centimeters as units for non-parametric coordinates.

mtllib Cereal.mtl
g default
v -0.509737 0.001520 0.179003
v 0.490263 0.001520 0.179003
v -0.509737 1.374856 0.179003
v 0.490263 1.374856 0.179003
v -0.509737 1.374856 -0.181141
v 0.490263 1.374856 -0.181141
v -0.509737 0.001520 -0.181141
v 0.490263 0.001520 -0.181141
vt 0.113915 0.351444
vt 0.500329 0.351444
vt 0.500355 0.923488
vt 0.114024 0.923524
vt 0.114024 0.923524
vt 0.500355 0.923488
vt 0.500795 1.000050
vt 0.114632 0.999985
vt 0.999999 0.923740
vt 0.615421 0.923740
vt 0.615421 0.352121
vt 0.999999 0.352121
vt 0.616447 0.276756
vt 0.999959 0.275005
vt 0.999801 0.352085
vt 0.616453 0.352118
vt 0.500375 0.352543
vt 0.615282 0.352173
vt 0.615282 0.999799
vt 0.500375 0.999799
vt 0.001768 0.351168
vt 0.112548 0.351252
vt 0.114513 1.000353
vt -0.000080 1.000317
vn 0.000000 0.000000 1.000000
vn 0.000000 0.000000 1.000000
vn 0.000000 0.000000 1.000000
vn 0.000000 0.000000 1.000000
vn 0.000000 1.000000 0.000000
vn 0.000000 1.000000 0.000000
vn 0.000000 1.000000 0.000000
vn 0.000000 1.000000 0.000000
vn 0.000000 0.000000 -1.000000
vn 0.000000 0.000000 -1.000000
vn 0.000000 0.000000 -1.000000
vn 0.000000 0.000000 -1.000000
vn 0.000000 -1.000000 0.000000
vn 0.000000 -1.000000 0.000000
vn 0.000000 -1.000000 0.000000
vn 0.000000 -1.000000 0.000000
vn 1.000000 0.000000 0.000000
vn 1.000000 0.000000 0.000000
vn 1.000000 0.000000 0.000000
vn 1.000000 0.000000 0.000000
vn -1.000000 0.000000 0.000000
vn -1.000000 0.000000 0.000000
vn -1.000000 0.000000 0.000000
vn -1.000000 0.000000 0.000000
s off
g Cereal:pCube1
usemtl initialShadingGroup
f 1/1/1 2/2/2 4/3/3 3/4/4
f 3/5/5 4/6/6 6/7/7 5/8/8
f 5/9/9 6/10/10 8/11/11 7/12/12
f 7/13/13 8/14/14 2/15/15 1/16/16
f 2/17/17 8/18/18 6/19/19 4/20/20
f 7/21/21 1/22/22 3/23/23 5/24/24
