# This file uses centimeters as units for non-parametric coordinates.

mtllib Counter.mtl
g default
v 2.500000 0.004315 -0.000000
v -2.500001 0.004315 -0.000000
v -2.377642 0.004315 0.772542
v -2.022543 0.004315 1.469463
v -1.469464 0.004315 2.022543
v -0.772543 0.004315 2.377642
v -0.000000 0.004315 2.500001
v 0.772543 0.004315 2.377642
v 1.469464 0.004315 2.022544
v 2.022543 0.004315 1.469464
v 2.377642 0.004315 0.772543
v 2.500000 1.504315 0.000000
v -2.500001 1.504315 -0.000000
v -2.377642 1.504315 0.772542
v -2.022543 1.504315 1.469463
v -1.469464 1.504315 2.022543
v -0.772543 1.504315 2.377642
v -0.000000 1.504315 2.500001
v 0.772543 1.504315 2.377642
v 1.469464 1.504315 2.022544
v 2.022543 1.504315 1.469464
v 2.377642 1.504315 0.772543
v 4.000000 1.504315 0.000000
v -4.000001 1.504315 0.000000
v -3.804227 1.504315 1.236068
v -3.236069 1.504315 2.351142
v -2.351142 1.504315 3.236069
v -1.236069 1.504315 3.804228
v 0.000000 1.504315 4.000002
v 1.236069 1.504315 3.804228
v 2.351142 1.504315 3.236070
v 3.236070 1.504315 2.351142
v 3.804229 1.504315 1.236069
v 4.000000 0.004315 -0.000000
v -4.000001 0.004315 -0.000000
v -3.804227 0.004315 1.236068
v -3.236069 0.004315 2.351142
v -2.351142 0.004315 3.236069
v -1.236069 0.004315 3.804228
v 0.000000 0.004315 4.000002
v 1.236069 0.004315 3.804228
v 2.351142 0.004315 3.236070
v 3.236070 0.004315 2.351142
v 3.804229 0.004315 1.236069
vt 0.500000 0.500000
vt 0.550000 1.000000
vt 0.600000 1.000000
vt 0.650000 1.000000
vt 0.700000 1.000000
vt 0.750000 1.000000
vt 0.800000 1.000000
vt 0.850000 1.000000
vt 0.900000 1.000000
vt 0.950000 1.000000
vt 1.000000 0.500000
vt 0.500000 0.750000
vt 0.550000 0.750000
vt 0.600000 0.750000
vt 0.650000 0.750000
vt 0.700000 0.750000
vt 0.750000 0.750000
vt 0.800000 0.750000
vt 0.850000 0.750000
vt 0.900000 0.750000
vt 0.950000 0.750000
vt 1.000000 0.750000
vt 0.500000 0.500000
vt 0.550000 0.500000
vt 0.600000 0.500000
vt 0.650000 0.500000
vt 0.700000 0.500000
vt 0.750000 0.500000
vt 0.800000 0.500000
vt 0.850000 0.500000
vt 0.900000 0.500000
vt 0.950000 0.500000
vt 1.000000 0.500000
vt 0.500000 0.250000
vt 0.550000 0.250000
vt 0.600000 0.250000
vt 0.650000 0.250000
vt 0.700000 0.250000
vt 0.750000 0.250000
vt 0.800000 0.250000
vt 0.850000 0.250000
vt 0.900000 0.250000
vt 0.950000 0.250000
vt 1.000000 0.250000
vt 0.950000 0.000000
vt 0.550000 0.000000
vt 0.600000 0.000000
vt 0.650000 0.000000
vt 0.700000 0.000000
vt 0.750000 0.000000
vt 0.800000 0.000000
vt 0.850000 0.000000
vt 0.900000 0.000000
vn 0.951057 0.000000 -0.309017
vn 0.987688 0.000000 -0.156435
vn 0.951057 0.000000 -0.309017
vn 0.987688 0.000000 -0.156435
vn 0.809017 0.000000 -0.587785
vn 0.809017 0.000000 -0.587785
vn 0.587786 0.000000 -0.809017
vn 0.587786 0.000000 -0.809017
vn 0.309017 0.000000 -0.951057
vn 0.309018 0.000000 -0.951056
vn 0.000000 0.000000 -1.000000
vn 0.000000 0.000000 -1.000000
vn -0.309017 0.000000 -0.951057
vn -0.309017 0.000000 -0.951057
vn -0.587785 0.000000 -0.809017
vn -0.587785 0.000000 -0.809017
vn -0.809017 0.000000 -0.587785
vn -0.809017 0.000000 -0.587785
vn -0.951057 0.000000 -0.309016
vn -0.951057 0.000000 -0.309016
vn -0.987689 0.000000 -0.156433
vn -0.987689 0.000000 -0.156433
vn 0.000000 1.000000 -0.000000
vn 0.000000 1.000000 0.000000
vn 0.000000 1.000000 -0.000000
vn 0.000000 1.000000 0.000000
vn 0.000000 1.000000 -0.000000
vn 0.000000 1.000000 -0.000000
vn 0.000000 1.000000 0.000000
vn 0.000000 1.000000 0.000000
vn 0.000000 1.000000 0.000000
vn 0.000000 1.000000 0.000000
vn 0.000000 1.000000 0.000000
vn 0.000000 1.000000 0.000000
vn 0.000000 1.000000 -0.000000
vn 0.000000 1.000000 0.000000
vn 0.000000 1.000000 -0.000000
vn 0.000000 1.000000 0.000000
vn 0.000000 1.000000 0.000000
vn 0.000000 1.000000 0.000000
vn 0.000000 1.000000 -0.000000
vn 0.000000 1.000000 0.000000
vn 0.000000 1.000000 -0.000000
vn 0.000000 1.000000 0.000000
vn -0.951057 0.000000 0.309017
vn -0.987688 0.000000 0.156434
vn -0.951057 0.000000 0.309017
vn -0.987688 0.000000 0.156434
vn -0.809017 0.000000 0.587785
vn -0.809017 0.000000 0.587785
vn -0.587786 0.000000 0.809017
vn -0.587785 0.000000 0.809017
vn -0.309017 0.000000 0.951057
vn -0.309017 0.000000 0.951056
vn -0.000000 0.000000 1.000000
vn -0.000000 0.000000 1.000000
vn 0.309017 0.000000 0.951057
vn 0.309017 0.000000 0.951057
vn 0.587785 0.000000 0.809017
vn 0.587785 0.000000 0.809017
vn 0.809017 0.000000 0.587785
vn 0.809017 0.000000 0.587785
vn 0.951057 -0.000000 0.309016
vn 0.951057 0.000000 0.309016
vn 0.987689 -0.000000 0.156432
vn 0.987689 -0.000000 0.156432
vn 0.000000 -1.000000 0.000000
vn 0.000000 -1.000000 0.000000
vn 0.000000 -1.000000 0.000000
vn 0.000000 -1.000000 0.000000
vn 0.000000 -1.000000 -0.000000
vn 0.000000 -1.000000 0.000000
vn 0.000000 -1.000000 -0.000000
vn 0.000000 -1.000000 0.000000
vn 0.000000 -1.000000 -0.000000
vn 0.000000 -1.000000 0.000000
vn 0.000000 -1.000000 0.000000
vn 0.000000 -1.000000 -0.000000
vn 0.000000 -1.000000 0.000000
vn 0.000000 -1.000000 -0.000000
vn 0.000000 -1.000000 0.000000
vn 0.000000 -1.000000 0.000000
vn 0.000000 -1.000000 0.000000
vn 0.000000 -1.000000 0.000000
vn 0.000000 -1.000000 0.000000
vn 0.000000 -1.000000 0.000000
vn 0.000000 -1.000000 0.000000
vn 0.000000 -1.000000 0.000000
vn 0.000000 0.000000 -1.000000
vn 0.000000 0.000000 -1.000000
vn 0.000000 0.000000 -1.000000
vn 0.000000 0.000000 -1.000000
vn -0.000000 0.000000 -1.000000
vn -0.000000 0.000000 -1.000000
vn -0.000000 0.000000 -1.000000
vn -0.000000 0.000000 -1.000000
s 1
g pPipe2
usemtl lambert2SG
f 3/2/1 2/1/2 14/13/3
f 14/13/3 2/1/2 13/12/4
f 4/3/5 3/2/1 15/14/6
f 15/14/6 3/2/1 14/13/3
f 5/4/7 4/3/5 16/15/8
f 16/15/8 4/3/5 15/14/6
f 6/5/9 5/4/7 17/16/10
f 17/16/10 5/4/7 16/15/8
f 7/6/11 6/5/9 18/17/12
f 18/17/12 6/5/9 17/16/10
f 8/7/13 7/6/11 19/18/14
f 19/18/14 7/6/11 18/17/12
f 9/8/15 8/7/13 20/19/16
f 20/19/16 8/7/13 19/18/14
f 10/9/17 9/8/15 21/20/18
f 21/20/18 9/8/15 20/19/16
f 11/10/19 10/9/17 22/21/20
f 22/21/20 10/9/17 21/20/18
f 1/11/21 11/10/19 12/22/22
f 12/22/22 11/10/19 22/21/20
s 2
f 14/13/23 13/12/24 25/24/25
f 25/24/25 13/12/24 24/23/26
f 15/14/27 14/13/23 26/25/28
f 26/25/28 14/13/23 25/24/25
f 16/15/29 15/14/27 27/26/30
f 27/26/30 15/14/27 26/25/28
f 17/16/31 16/15/29 28/27/32
f 28/27/32 16/15/29 27/26/30
f 18/17/33 17/16/31 29/28/34
f 29/28/34 17/16/31 28/27/32
f 19/18/35 18/17/33 30/29/36
f 30/29/36 18/17/33 29/28/34
f 20/19/37 19/18/35 31/30/38
f 31/30/38 19/18/35 30/29/36
f 21/20/39 20/19/37 32/31/40
f 32/31/40 20/19/37 31/30/38
f 22/21/41 21/20/39 33/32/42
f 33/32/42 21/20/39 32/31/40
f 12/22/43 22/21/41 23/33/44
f 23/33/44 22/21/41 33/32/42
s 3
f 25/24/45 24/23/46 36/35/47
f 36/35/47 24/23/46 35/34/48
f 26/25/49 25/24/45 37/36/50
f 37/36/50 25/24/45 36/35/47
f 27/26/51 26/25/49 38/37/52
f 38/37/52 26/25/49 37/36/50
f 28/27/53 27/26/51 39/38/54
f 39/38/54 27/26/51 38/37/52
f 29/28/55 28/27/53 40/39/56
f 40/39/56 28/27/53 39/38/54
f 30/29/57 29/28/55 41/40/58
f 41/40/58 29/28/55 40/39/56
f 31/30/59 30/29/57 42/41/60
f 42/41/60 30/29/57 41/40/58
f 32/31/61 31/30/59 43/42/62
f 43/42/62 31/30/59 42/41/60
f 33/32/63 32/31/61 44/43/64
f 44/43/64 32/31/61 43/42/62
f 23/33/65 33/32/63 34/44/66
f 34/44/66 33/32/63 44/43/64
s 4
f 36/35/67 35/34/68 3/46/69
f 3/46/69 35/34/68 2/1/70
f 37/36/71 36/35/67 4/47/72
f 4/47/72 36/35/67 3/46/69
f 38/37/73 37/36/71 5/48/74
f 5/48/74 37/36/71 4/47/72
f 39/38/75 38/37/73 6/49/76
f 6/49/76 38/37/73 5/48/74
f 40/39/77 39/38/75 7/50/78
f 7/50/78 39/38/75 6/49/76
f 41/40/79 40/39/77 8/51/80
f 8/51/80 40/39/77 7/50/78
f 42/41/81 41/40/79 9/52/82
f 9/52/82 41/40/79 8/51/80
f 43/42/83 42/41/81 10/53/84
f 10/53/84 42/41/81 9/52/82
f 44/43/85 43/42/83 11/45/86
f 11/45/86 43/42/83 10/53/84
f 34/44/87 44/43/85 1/11/88
f 1/11/88 44/43/85 11/45/86
s 5
f 12/22/89 23/33/90 1/11/91
f 1/11/91 23/33/90 34/44/92
s 6
f 24/23/93 13/12/94 35/34/95
f 35/34/95 13/12/94 2/1/96
