# This file uses centimeters as units for non-parametric coordinates.

mtllib MetagrossEye.mtl
g default
v -0.711888 3.232966 1.582935
v -0.738572 3.072162 1.623986
v -0.608650 3.097578 1.636925
v -0.845271 3.116765 1.558269
v -0.866244 3.205259 1.478266
v 0.711888 3.232965 1.582935
v 0.608651 3.097578 1.636925
v 0.738572 3.072162 1.623987
v 0.531614 3.178125 1.589505
v 0.552587 3.266618 1.509502
v 0.659283 3.311222 1.443782
v 0.789205 3.285806 1.430844
v 0.866244 3.205259 1.478266
v -0.531614 3.178126 1.589505
v -0.552587 3.266618 1.509502
v -0.659283 3.311222 1.443782
v -0.789205 3.285806 1.430844
v 0.845271 3.116765 1.558269
vt 0.250000 0.878906
vt 0.250000 0.761719
vt 0.078125 0.796875
vt 0.421875 0.796875
vt 0.496094 0.878906
vt 0.250000 0.878906
vt 0.078125 0.796875
vt 0.250000 0.761719
vt 0.007813 0.878906
vt 0.078125 0.960938
vt 0.250000 0.992188
vt 0.421875 0.960938
vt 0.496094 0.878906
vt 0.007813 0.878906
vt 0.078125 0.960938
vt 0.250000 0.992188
vt 0.421875 0.960938
vt 0.421875 0.796875
vn -0.198147 0.630993 0.750057
vn -0.282139 0.280992 0.917301
vn -0.024386 0.354224 0.934843
vn -0.198147 0.630993 0.750057
vn -0.485693 0.391648 0.781482
vn -0.282139 0.280992 0.917301
vn -0.514040 0.618491 0.594333
vn -0.485693 0.391648 0.781482
vn -0.198147 0.630993 0.750057
vn 0.198147 0.631091 0.749975
vn 0.024374 0.354220 0.934844
vn 0.282130 0.280983 0.917307
vn 0.198147 0.631091 0.749975
vn -0.142348 0.565275 0.812528
vn 0.024374 0.354220 0.934844
vn -0.117342 0.781507 0.612762
vn -0.142348 0.565275 0.812528
vn 0.198147 0.631091 0.749975
vn 0.198147 0.631091 0.749975
vn 0.082937 0.881680 0.464501
vn -0.117342 0.781507 0.612762
vn 0.198147 0.631091 0.749975
vn 0.343979 0.818914 0.459410
vn 0.082937 0.881680 0.464501
vn 0.514046 0.618482 0.594338
vn 0.343979 0.818914 0.459410
vn 0.198147 0.631091 0.749975
vn 0.142349 0.565269 0.812532
vn -0.198147 0.630993 0.750057
vn -0.024386 0.354224 0.934843
vn 0.142349 0.565269 0.812532
vn 0.117339 0.781501 0.612770
vn -0.198147 0.630993 0.750057
vn -0.082926 0.881684 0.464496
vn -0.198147 0.630993 0.750057
vn 0.117339 0.781501 0.612770
vn -0.082926 0.881684 0.464496
vn -0.343973 0.818923 0.459400
vn -0.198147 0.630993 0.750057
vn 0.485696 0.391631 0.781489
vn 0.198147 0.631091 0.749975
vn 0.282130 0.280983 0.917307
vn 0.485696 0.391631 0.781489
vn 0.514046 0.618482 0.594338
vn 0.198147 0.631091 0.749975
vn -0.514040 0.618491 0.594333
vn -0.198147 0.630993 0.750057
vn -0.343973 0.818923 0.459400
s off
g Metagross:polygon0
usemtl Metagross:mat3
f 1/1/1 2/2/2 3/3/3
f 1/1/4 4/4/5 2/2/6
f 5/5/7 4/4/8 1/1/9
f 6/6/10 7/7/11 8/8/12
f 6/6/13 9/9/14 7/7/15
f 10/10/16 9/9/17 6/6/18
f 6/6/19 11/11/20 10/10/21
f 6/6/22 12/12/23 11/11/24
f 13/13/25 12/12/26 6/6/27
f 14/14/28 1/1/29 3/3/30
f 14/14/31 15/15/32 1/1/33
f 16/16/34 1/1/35 15/15/36
f 16/16/37 17/17/38 1/1/39
f 18/18/40 6/6/41 8/8/42
f 18/18/43 13/13/44 6/6/45
f 5/5/46 1/1/47 17/17/48
