# This file uses centimeters as units for non-parametric coordinates.

mtllib SofaTest.mtl
g default
v 1.956902 0.858461 -1.000475
v 1.956903 0.061550 -1.000475
v 1.956903 0.061550 1.145212
v 1.956902 0.858461 1.145212
v -1.994624 0.858461 -1.000475
v -1.994624 0.061550 -1.000475
v -1.994624 0.061550 1.145212
v -1.994624 0.858461 1.145212
v -2.548880 0.858461 -0.403406
v -2.548880 0.061550 -0.403406
v -1.994624 0.061550 -0.403406
v 1.956903 0.061550 -0.403406
v 2.511159 0.061550 -0.403406
v 2.511159 0.858461 -0.403406
v 1.956902 0.858461 -0.403406
v -1.994624 0.858461 -0.403406
v -2.548880 0.061550 1.006662
v -2.410330 0.061550 1.145212
v -2.479606 0.061550 1.126650
v -2.530318 0.061550 1.075937
v -2.479605 0.858461 1.126650
v -2.530318 0.858461 1.075937
v -2.548880 0.858461 1.006662
v -2.410330 0.858461 1.145212
v 2.511159 0.061550 1.006662
v 2.492597 0.061550 1.075937
v 2.441885 0.061550 1.126650
v 2.372609 0.061550 1.145212
v 2.492597 0.858461 1.075937
v 2.441884 0.858461 1.126650
v 2.372609 0.858461 1.145212
v 2.511159 0.858461 1.006662
v -2.530318 0.858461 -0.931200
v -2.479605 0.858461 -0.981913
v -2.410330 0.858461 -1.000475
v -2.548880 0.858461 -0.861925
v -2.548880 0.061550 -0.861925
v -2.530318 0.061550 -0.931200
v -2.479606 0.061550 -0.981913
v -2.410330 0.061550 -1.000475
v 2.441884 0.858461 -0.981913
v 2.492597 0.858461 -0.931200
v 2.511159 0.858461 -0.861925
v 2.372609 0.858461 -1.000475
v 2.372609 0.061550 -1.000475
v 2.441885 0.061550 -0.981913
v 2.492597 0.061550 -0.931200
v 2.511159 0.061550 -0.861925
v -2.410330 1.858461 1.006662
v -2.479605 1.839899 1.006662
v -2.530318 1.789186 1.006662
v -2.548880 1.719911 1.006662
v -2.530318 1.719911 1.075937
v -2.479605 1.719911 1.126650
v -2.410330 1.719911 1.145212
v -2.410330 1.789186 1.126650
v -2.410330 1.839899 1.075937
v -2.018552 1.802310 1.121284
v -2.072410 1.847617 1.067426
v -2.133174 1.858461 1.006662
v -1.994624 1.719911 1.145212
v -2.013121 1.789186 -0.421968
v -2.063498 1.839899 -0.472681
v -1.994624 1.858461 -0.541956
v -2.133174 1.858461 -0.403406
v -1.994624 1.719911 -0.403406
v -2.479605 1.839899 -0.403406
v -2.530318 1.789186 -0.403406
v -2.548880 1.719911 -0.403406
v -2.410330 1.858461 -0.403406
v 1.980830 1.802310 1.121284
v 2.034688 1.847617 1.067426
v 2.095453 1.858461 1.006662
v 1.956902 1.719911 1.145212
v 2.025777 1.839899 -0.472681
v 1.975399 1.789186 -0.421968
v 1.956902 1.719911 -0.403406
v 2.095453 1.858461 -0.403406
v 1.956902 1.858461 -0.541956
v 2.511159 1.719911 1.006662
v 2.492597 1.789186 1.006662
v 2.441884 1.839899 1.006662
v 2.372609 1.858461 1.006662
v 2.372609 1.839899 1.075937
v 2.372609 1.789186 1.126650
v 2.372609 1.719911 1.145212
v 2.441884 1.719911 1.126650
v 2.492597 1.719911 1.075937
v 2.492597 1.789186 -0.403406
v 2.441884 1.839899 -0.403406
v 2.372609 1.858461 -0.403406
v 2.511159 1.719911 -0.403406
v 2.372609 1.719911 -1.000475
v 2.372609 1.789186 -0.981913
v 2.372609 1.839899 -0.931200
v 2.372609 1.858461 -0.861925
v 2.441884 1.839899 -0.861925
v 2.492597 1.789186 -0.861925
v 2.511159 1.719911 -0.861925
v 2.492597 1.719911 -0.931200
v 2.441884 1.719911 -0.981913
v 1.956902 1.789186 -0.981913
v 1.956902 1.839899 -0.931200
v 1.956902 1.858461 -0.861925
v 1.956902 1.719911 -1.000475
v -1.994624 1.789186 -0.981913
v -1.994624 1.839899 -0.931200
v -1.994624 1.858461 -0.861925
v -1.994624 1.719911 -1.000475
v -2.548880 1.719911 -0.861925
v -2.530318 1.789186 -0.861925
v -2.479605 1.839899 -0.861925
v -2.410330 1.858461 -0.861925
v -2.410330 1.839899 -0.931200
v -2.410330 1.789186 -0.981913
v -2.410330 1.719911 -1.000475
v -2.479605 1.719911 -0.981913
v -2.530318 1.719911 -0.931200
v -2.474770 1.823550 1.071662
v -2.514187 1.784202 1.071535
v -2.475077 1.784053 1.110738
v 2.476466 1.784202 1.071535
v 2.437049 1.823550 1.071662
v 2.437356 1.784053 1.110738
v 2.437243 1.784546 -0.965837
v 2.437243 1.823824 -0.926559
v 2.476521 1.784546 -0.926559
v -2.514242 1.784546 -0.926559
v -2.474964 1.823824 -0.926559
v -2.474964 1.784546 -0.965837
vt 0.541667 0.750000
vt 0.458333 0.000000
vt 0.458333 0.835866
vt 0.458333 1.000000
vt 0.375000 0.985315
vt 0.541667 1.000000
vt 0.541667 0.835866
vt 0.625000 0.835866
vt 0.604169 1.000000
vt 0.375000 0.835866
vt 0.625000 0.769925
vt 0.210866 0.000000
vt 0.360315 0.250000
vt 0.375000 0.414134
vt 0.395831 -0.000000
vt 0.458333 0.250000
vt 0.541667 0.000000
vt 0.639685 0.000000
vt 0.789134 0.250000
vt 0.458333 0.500000
vt 0.144925 0.000000
vt 0.210866 0.250000
vt 0.458333 0.750000
vt 0.625000 0.414134
vt 0.789134 0.000000
vt 0.458333 0.414134
vt 0.375000 0.480075
vt 0.541667 0.250000
vt 0.541667 0.414134
vt 0.625000 0.264685
vt 0.541667 0.434059
vt 0.541667 0.500000
vt 0.360315 0.000000
vt 0.367658 0.000000
vt 0.377791 0.000000
vt 0.385416 0.250000
vt 0.377791 0.250000
vt 0.385416 0.000000
vt 0.375000 0.264685
vt 0.375000 0.257342
vt 0.377791 0.250000
vt 0.377791 0.250000
vt 0.604169 0.000000
vt 0.614584 0.000000
vt 0.626967 0.000000
vt 0.632342 0.250000
vt 0.626967 0.250000
vt 0.632342 0.000000
vt 0.604169 0.250000
vt 0.622209 0.250000
vt 0.625000 0.257342
vt 0.625000 0.257342
vt 0.377791 0.500000
vt 0.375000 0.490037
vt 0.375000 0.490037
vt 0.144925 0.250000
vt 0.134963 0.250000
vt 0.134963 0.000000
vt 0.385416 0.750000
vt 0.377791 0.750000
vt 0.395831 0.750000
vt 0.625000 0.480075
vt 0.625000 0.490037
vt 0.625000 0.497331
vt 0.614584 0.500000
vt 0.604169 0.500000
vt 0.614584 0.750000
vt 0.614584 0.500000
vt 0.622209 0.500000
vt 0.622209 0.750000
vt 0.855075 0.000000
vt 0.865037 0.000000
vt 0.375000 0.264685
vt 0.375000 0.264685
vt 0.385416 0.414134
vt 0.377791 0.414134
vt 0.395831 0.264685
vt 0.395831 0.251967
vt 0.454736 0.250000
vt 0.437502 0.264685
vt 0.454736 0.252536
vt 0.458333 0.252536
vt 0.458333 0.414134
vt 0.458333 0.434059
vt 0.541667 0.423926
vt 0.458333 0.425397
vt 0.458333 0.417191
vt 0.541667 0.416791
vt 0.458333 0.414134
vt 0.541667 0.414134
vt 0.415293 0.414134
vt 0.377791 0.414134
vt 0.377791 0.480075
vt 0.545264 0.252536
vt 0.545264 0.250000
vt 0.604169 0.250000
vt 0.604169 0.250000
vt 0.541667 0.250000
vt 0.541667 0.252536
vt 0.541667 0.414134
vt 0.562498 0.414134
vt 0.604169 0.264685
vt 0.622209 0.264685
vt 0.625000 0.414134
vt 0.604169 0.414134
vt 0.622209 0.414134
vt 0.625000 0.480075
vt 0.625000 0.480075
vt 0.604169 0.480075
vt 0.604169 0.497331
vt 0.541667 0.500000
vt 0.541667 0.480075
vt 0.541667 0.497331
vt 0.458333 0.500000
vt 0.458333 0.480075
vt 0.458333 0.497331
vt 0.395831 0.500000
vt 0.395831 0.500000
vt 0.395831 1.000000
vt 0.385416 0.998033
vt 0.377791 0.992658
vt 0.367658 0.250000
vt 0.395831 0.250000
vt 0.625000 0.985315
vt 0.622209 0.992658
vt 0.614584 0.998033
vt 0.614584 0.250000
vt 0.639685 0.250000
vt 0.395831 0.500000
vt 0.385416 0.500000
vt 0.375000 0.769925
vt 0.377791 0.759963
vt 0.385416 0.752669
vt 0.855075 0.250000
vt 0.865037 0.250000
vt 0.604169 0.750000
vt 0.614584 0.752669
vt 0.622209 0.759963
vt 0.446638 0.258244
vt 0.458333 0.250000
vt 0.455585 0.414134
vt 0.448421 0.414134
vt 0.458333 0.414134
vt 0.437502 0.414134
vt 0.448421 0.414134
vt 0.458333 0.414134
vt 0.375000 0.414134
vt 0.395831 0.414134
vt 0.562498 0.264685
vt 0.553362 0.258244
vt 0.551579 0.414134
vt 0.544415 0.414134
vt 0.546623 0.414134
vt 0.541667 0.414134
vt 0.614584 0.414134
vt 0.625000 0.414134
vt 0.541667 0.490037
vt 0.541667 0.500000
vt 0.458333 0.490037
vt 0.458333 0.500000
vt 0.385416 0.264685
vt 0.377791 0.264685
vt 0.375000 0.257342
vt 0.375000 0.257809
vt 0.380216 0.250000
vt 0.385416 0.250000
vt 0.386096 0.250000
vt 0.395831 0.250000
vt 0.395831 0.250000
vt 0.395831 0.257342
vt 0.386143 0.257795
vt 0.380216 0.257809
vt 0.386096 0.253654
vt 0.625000 0.264685
vt 0.625000 0.264685
vt 0.625000 0.257809
vt 0.619784 0.257809
vt 0.614584 0.264685
vt 0.604169 0.257342
vt 0.604169 0.251967
vt 0.614584 0.250000
vt 0.613904 0.250000
vt 0.622209 0.250000
vt 0.619784 0.250000
vt 0.613857 0.257795
vt 0.613903 0.253654
vt 0.604169 0.500000
vt 0.604169 0.500000
vt 0.613887 0.500000
vt 0.613887 0.495019
vt 0.604169 0.490037
vt 0.614584 0.480075
vt 0.622209 0.480075
vt 0.625000 0.490037
vt 0.625000 0.489370
vt 0.625000 0.497331
vt 0.625000 0.495019
vt 0.613887 0.489370
vt 0.619792 0.489370
vt 0.375000 0.480075
vt 0.375000 0.480075
vt 0.375000 0.489370
vt 0.380208 0.489370
vt 0.385416 0.480075
vt 0.395831 0.480075
vt 0.395831 0.490037
vt 0.395831 0.497331
vt 0.385416 0.500000
vt 0.386113 0.500000
vt 0.377791 0.500000
vt 0.380208 0.500000
vt 0.386113 0.489370
vt 0.386113 0.495019
vn -0.038246 0.000000 0.999268
vn -0.038246 0.000000 0.999268
vn 0.000000 0.000000 1.000000
vn 0.000000 0.000000 1.000000
vn -0.038246 0.000000 -0.999268
vn -0.038246 0.000000 -0.999268
vn -0.000000 0.000000 -1.000000
vn -0.000000 0.000000 -1.000000
vn -0.000000 -1.000000 0.000000
vn -0.000000 -1.000000 0.000000
vn -0.000000 -1.000000 0.000000
vn -0.000000 -1.000000 -0.000000
vn -0.000000 -1.000000 -0.000000
vn 0.999921 0.000001 0.012547
vn 0.999921 0.000001 0.012547
vn 1.000000 0.000001 0.000000
vn 1.000000 0.000001 0.000000
vn -1.000000 0.000001 0.000000
vn -0.999921 0.000001 0.012547
vn -0.999921 0.000001 0.012547
vn -1.000000 0.000001 0.000000
vn 0.000000 0.000000 -1.000000
vn 0.038246 0.000000 -0.999268
vn 0.038246 0.000000 -0.999268
vn 0.000000 0.000000 -1.000000
vn 0.000000 -1.000000 0.000000
vn 0.000000 -1.000000 0.000000
vn 0.000000 -1.000000 0.000000
vn 0.000000 -1.000000 0.000000
vn 0.000000 -1.000000 0.000000
vn -0.000000 0.000000 1.000000
vn -0.000000 0.000000 1.000000
vn 0.038246 0.000000 0.999268
vn 0.038246 0.000000 0.999268
vn 0.000000 1.000000 0.000000
vn 0.000000 1.000000 0.000000
vn 0.000000 1.000000 0.000000
vn 0.000000 1.000000 0.000000
vn -0.999382 0.000001 -0.035147
vn -0.999382 0.000001 -0.035147
vn -0.000000 -1.000000 0.000000
vn 0.000000 -1.000000 0.000000
vn 0.000000 -1.000000 0.000000
vn 0.000000 -1.000000 0.000000
vn 0.999382 0.000001 -0.035147
vn 0.999382 0.000001 -0.035147
vn 0.049400 0.998779 0.000000
vn 0.039234 0.998581 -0.036006
vn 0.000000 0.998926 -0.046329
vn 0.000000 0.998385 0.056819
vn -0.039989 0.999200 -0.000344
vn -0.000000 0.998926 -0.046329
vn 0.000000 0.998385 0.056819
vn -0.039234 0.998581 -0.036006
vn -0.049400 0.998779 0.000000
vn 0.039989 0.999200 -0.000344
vn 0.000138 0.018560 0.999828
vn -0.037666 0.021520 0.999059
vn -0.038246 0.000000 0.999268
vn 0.000000 0.000000 1.000000
vn 1.000000 0.000000 0.000000
vn 1.000000 0.000000 0.000000
vn 0.999664 0.025936 0.000053
vn 0.999820 0.018977 0.000039
vn -1.000000 0.000000 0.000000
vn -0.999921 0.000000 0.012547
vn -0.999726 0.019847 0.012450
vn -0.999801 0.019940 0.000000
vn -1.000000 0.000000 0.000000
vn -1.000000 0.000000 0.000000
vn -0.999820 0.018977 0.000039
vn -0.999664 0.025936 0.000053
vn 0.000000 0.000000 1.000000
vn 0.038246 0.000000 0.999268
vn 0.037666 0.021520 0.999059
vn -0.000138 0.018560 0.999828
vn 0.999801 0.019940 0.000000
vn 0.999726 0.019847 0.012450
vn 0.999921 0.000000 0.012547
vn 1.000000 0.000000 0.000000
vn 1.000000 0.000000 0.000000
vn 0.999382 0.000000 -0.035147
vn 0.999197 0.019669 -0.034898
vn 0.999801 0.019940 0.000000
vn 0.000000 0.019940 -0.999801
vn 0.037978 0.019644 -0.999085
vn 0.038246 0.000000 -0.999268
vn 0.000000 0.000000 -1.000000
vn 0.000000 0.000000 1.000000
vn 0.000000 0.000000 1.000000
vn 0.000000 0.022967 0.999736
vn 0.000000 0.022967 0.999736
vn 0.000000 0.000000 -1.000000
vn 0.000000 0.000000 -1.000000
vn 0.000000 0.019940 -0.999801
vn 0.000000 0.019940 -0.999801
vn -0.000000 0.000000 -1.000000
vn -0.038246 0.000000 -0.999268
vn -0.037978 0.019644 -0.999085
vn -0.000000 0.019940 -0.999801
vn -0.999801 0.019940 0.000000
vn -0.999197 0.019669 -0.034898
vn -0.999382 0.000000 -0.035147
vn -1.000000 0.000000 0.000000
vn -0.000000 -1.000000 0.000000
vn -0.000000 -1.000000 0.000000
vn -0.053574 0.998500 0.011285
vn 0.056782 0.998317 0.011769
vn -0.056782 0.998317 0.011769
vn 0.053574 0.998500 0.011285
vn -0.965926 0.000001 0.258818
vn -0.965926 0.000001 0.258818
vn -0.707108 0.000001 0.707106
vn -0.707108 0.000001 0.707106
vn -0.707108 0.000001 0.707106
vn -0.707108 0.000001 0.707106
vn -0.258819 0.000000 0.965926
vn -0.258819 0.000000 0.965926
vn -0.965926 0.000000 0.258818
vn -0.866793 0.016066 0.498410
vn -0.707107 0.000000 0.707106
vn -0.707107 0.000000 0.707106
vn -0.498441 0.016008 0.866776
vn -0.258819 0.000000 0.965926
vn 0.258819 0.000000 0.965926
vn 0.258819 0.000000 0.965926
vn 0.707108 0.000001 0.707106
vn 0.707108 0.000001 0.707106
vn 0.707108 0.000001 0.707106
vn 0.707108 0.000001 0.707106
vn 0.965926 0.000001 0.258818
vn 0.965926 0.000001 0.258818
vn 0.258819 0.000000 0.965926
vn 0.498441 0.016008 0.866776
vn 0.707107 0.000000 0.707106
vn 0.707107 0.000000 0.707106
vn 0.866793 0.016066 0.498410
vn 0.965926 0.000000 0.258818
vn -0.258818 0.000000 -0.965926
vn -0.498482 0.016127 -0.866750
vn -0.707107 0.000000 -0.707106
vn -0.707107 0.000000 -0.707106
vn -0.866751 0.016127 -0.498481
vn -0.965926 0.000000 -0.258817
vn -0.965926 0.000001 -0.258817
vn -0.965926 0.000001 -0.258817
vn -0.707107 0.000001 -0.707107
vn -0.707107 0.000001 -0.707107
vn -0.707107 0.000001 -0.707107
vn -0.707107 0.000001 -0.707107
vn -0.258819 0.000000 -0.965926
vn -0.258819 0.000000 -0.965926
vn 0.965926 0.000000 -0.258817
vn 0.866751 0.016127 -0.498481
vn 0.707107 0.000000 -0.707106
vn 0.707107 0.000000 -0.707106
vn 0.498482 0.016127 -0.866750
vn 0.258818 0.000000 -0.965926
vn 0.258819 0.000000 -0.965926
vn 0.258819 0.000000 -0.965926
vn 0.707107 0.000001 -0.707107
vn 0.707107 0.000001 -0.707107
vn 0.707107 0.000001 -0.707107
vn 0.707107 0.000001 -0.707107
vn 0.965926 0.000001 -0.258817
vn 0.965926 0.000001 -0.258817
vn -0.866467 0.499131 0.010199
vn -0.965926 0.258818 0.000000
vn -0.499114 0.866476 0.010236
vn -0.707107 0.707107 0.000000
vn -0.707107 0.707107 0.000000
vn -0.258819 0.965926 0.000000
vn -0.046042 0.867287 0.495675
vn -0.008512 0.808216 0.588824
vn -0.034167 0.490751 0.870630
vn -0.008073 0.734481 0.678582
vn 0.002009 0.270050 0.962844
vn 0.219804 0.975542 -0.001888
vn 0.219804 0.975542 -0.001888
vn 0.678511 0.734589 -0.001809
vn 0.678510 0.734589 -0.001809
vn 0.678511 0.734589 -0.001809
vn 0.678511 0.734589 -0.001809
vn 0.962996 0.269515 0.000548
vn 0.962996 0.269515 0.000548
vn 0.000000 0.853873 0.520482
vn 0.000000 0.853873 0.520482
vn 0.000000 0.707107 0.707106
vn 0.000000 0.707107 0.707107
vn 0.000000 0.258819 0.965926
vn 0.000000 0.258819 0.965926
vn -0.965926 0.258818 0.000000
vn -0.867158 0.497207 -0.028682
vn -0.707109 0.707105 0.000000
vn -0.707109 0.707105 0.000000
vn -0.497209 0.867157 -0.028682
vn -0.258818 0.965926 0.000000
vn 0.008512 0.808216 0.588825
vn 0.046042 0.867287 0.495675
vn 0.008073 0.734480 0.678583
vn 0.034167 0.490750 0.870630
vn -0.002009 0.270049 0.962845
vn -0.962996 0.269515 0.000548
vn -0.962996 0.269515 0.000548
vn -0.678510 0.734589 -0.001809
vn -0.678510 0.734589 -0.001809
vn -0.678510 0.734589 -0.001809
vn -0.678510 0.734589 -0.001809
vn -0.219804 0.975542 -0.001888
vn -0.219804 0.975542 -0.001888
vn 0.499114 0.866476 0.010236
vn 0.258819 0.965926 0.000000
vn 0.866467 0.499131 0.010199
vn 0.707107 0.707107 0.000000
vn 0.707107 0.707107 0.000000
vn 0.965926 0.258818 0.000000
vn 0.258818 0.965926 0.000000
vn 0.497209 0.867157 -0.028682
vn 0.707109 0.707105 0.000000
vn 0.707109 0.707105 0.000000
vn 0.867158 0.497207 -0.028682
vn 0.965926 0.258818 0.000000
vn 0.031269 0.867223 -0.496937
vn 0.000000 0.965926 -0.258819
vn 0.031269 0.496936 -0.867224
vn 0.000000 0.500000 -0.866026
vn 0.000000 0.707106 -0.707107
vn 0.000000 0.866026 -0.499999
vn 0.000000 0.866026 -0.499999
vn 0.000000 0.707108 -0.707106
vn 0.000000 0.707108 -0.707106
vn 0.000000 0.258819 -0.965926
vn 0.000000 0.258819 -0.965926
vn -0.000000 0.965926 -0.258819
vn -0.031269 0.867223 -0.496937
vn -0.000000 0.707106 -0.707108
vn -0.000000 0.500000 -0.866025
vn -0.031269 0.496936 -0.867224
vn -0.000000 -1.000000 -0.000000
vn -0.000000 -1.000000 -0.000000
vn 0.000000 -1.000000 0.000000
vn 0.000000 -1.000000 0.000000
vn -0.000000 -1.000000 0.000000
vn -0.000000 -1.000000 0.000000
vn 0.000000 -1.000000 0.000000
vn 0.000000 -1.000000 0.000000
vn 0.000000 0.000000 0.000000
vn 0.707027 0.015276 0.707022
vn 0.707027 0.015276 0.707022
vn 0.707027 0.015276 0.707022
vn 0.707027 0.015276 0.707022
vn -0.707021 0.015255 0.707028
vn -0.707021 0.015255 0.707028
vn -0.707021 0.015255 0.707028
vn -0.416888 0.806871 0.418526
vn -0.807987 0.416815 0.416441
vn -0.416469 0.414772 0.809023
vn 0.807987 0.416814 0.416441
vn 0.416887 0.806871 0.418527
vn 0.416469 0.414772 0.809023
vn 0.416264 0.416264 -0.808361
vn 0.416265 0.808361 -0.416265
vn 0.808362 0.416263 -0.416264
vn -0.808362 0.416263 -0.416264
vn -0.416265 0.808361 -0.416265
vn -0.416264 0.416264 -0.808362
s 1
g pCube1
usemtl lambert2SG
f 24/123/1 18/15/2 7/2/3 8/16/4
s 2
f 40/61/5 35/129/6 5/20/7 6/23/8
s 3
f 10/10/9 11/3/10 7/4/11 18/119/12 17/5/13
s 4
f 32/128/14 25/18/15 13/25/16 14/19/17
s 5
f 10/12/18 17/33/19 23/13/20 9/22/21
s 2
f 1/32/22 44/66/23 45/136/24 2/1/25
s 3
f 3/6/26 12/7/27 13/8/28 25/124/29 28/9/30
s 1
f 4/28/31 3/17/32 28/43/33 31/49/34
s 2
f 5/20/7 1/32/22 2/1/25 6/23/8
s 3
f 7/4/11 11/3/10 12/7/27 3/6/26
s 1
f 8/16/4 7/2/3 3/17/32 4/28/31
s off
f 16/26/35 8/16/36 4/28/37 15/29/38
s 5
f 36/56/39 37/21/40 10/12/18 9/22/21
s 3
f 12/7/27 11/3/10 6/23/41 2/1/42
f 13/8/28 12/7/27 2/1/42 45/136/43 48/11/44
s 4
f 14/19/17 13/25/16 48/71/45 43/134/46
s 7
f 91/105/47 96/109/48 104/112/49 79/31/50 78/101/51
f 104/112/49 108/115/52 64/84/53 79/31/50
f 108/115/52 113/205/54 70/148/55 65/144/56 64/84/53
f 61/140/57 55/168/58 24/123/59 8/16/60
s 9
f 8/16/61 16/26/62 66/146/63 61/140/64
s 7
f 9/14/65 23/39/66 52/73/67 69/91/68
s 11
f 15/29/69 4/28/70 74/98/71 77/153/72
s 7
f 4/28/73 31/49/74 86/96/75 74/98/76
f 92/156/77 80/174/78 32/30/79 14/24/80
f 14/24/81 43/62/82 99/107/83 92/156/84
f 105/158/85 93/187/86 44/66/87 1/32/88
s 16
f 16/26/89 15/29/90 77/153/91 66/146/92
s 17
f 1/32/93 5/20/94 109/160/95 105/158/96
s 7
f 5/20/97 35/129/98 116/117/99 109/160/100
f 69/91/101 110/200/102 36/27/103 9/14/104
s 3
f 37/131/105 40/61/106 6/23/41 11/3/10 10/10/9
s 7
f 70/148/55 49/77/107 60/80/108 65/144/56
f 78/101/51 73/149/109 83/102/110 91/105/47
s 5
f 17/33/19 20/34/111 22/122/112 23/13/20
s off
f 20/35/113 19/38/114 21/36/115 22/37/116
s 1
f 19/38/117 18/15/2 24/123/1 21/36/118
s 7
f 23/39/66 22/40/119 53/163/120 52/73/67
f 22/41/121 21/36/122 54/166/123 53/42/120
f 21/36/124 24/123/59 55/168/58 54/166/123
s 1
f 28/43/33 27/44/125 30/127/126 31/49/34
s off
f 27/45/127 26/48/128 29/46/129 30/47/130
s 4
f 26/48/131 25/18/15 32/128/14 29/46/132
s 7
f 31/49/74 30/127/133 87/181/134 86/96/75
f 30/127/135 29/50/136 88/183/137 87/181/134
f 29/51/138 32/30/79 80/174/78 88/52/137
f 35/129/98 34/130/139 117/208/140 116/117/99
f 34/130/141 33/53/142 118/210/143 117/208/140
f 33/54/144 36/27/103 110/200/102 118/55/143
s 5
f 36/56/39 33/57/145 38/58/146 37/21/40
s off
f 33/53/147 34/130/148 39/59/149 38/60/150
s 2
f 34/130/151 35/129/6 40/61/5 39/59/152
s 7
f 43/62/82 42/63/153 100/194/154 99/107/83
f 42/63/155 41/64/156 101/196/157 100/194/154
f 41/68/158 44/66/87 93/187/86 101/65/157
s 2
f 44/66/23 41/68/159 46/67/160 45/136/24
s off
f 41/68/161 42/69/162 47/70/163 46/67/164
s 4
f 42/135/165 43/134/46 48/71/45 47/72/166
s 7
f 52/73/67 51/74/167 68/147/168 69/91/68
f 51/162/167 50/161/169 67/75/170 68/76/171
f 50/161/169 49/77/107 70/148/55 67/75/172
f 49/77/107 57/170/173 59/139/174 60/80/108
f 57/170/173 56/78/175 58/81/176 59/139/174
f 56/169/175 55/168/58 61/140/57 58/79/177
f 60/80/108 59/139/178 63/145/179 65/144/56
s off
f 59/139/180 58/81/181 62/91/182 63/145/183
s 9
f 58/82/184 61/140/64 66/146/63 62/83/185
s 7
f 64/84/53 63/86/186 75/85/187 79/31/50
f 63/86/186 62/87/188 76/88/189 75/85/187
s 16
f 62/89/190 66/146/92 77/153/91 76/90/191
s 7
f 69/91/101 68/147/192 111/201/193 110/200/102
f 68/92/194 67/75/195 112/204/196 111/93/193
f 67/75/197 70/148/55 113/205/54 112/204/196
f 73/149/109 72/150/198 84/179/199 83/102/110
f 72/150/198 71/94/200 85/180/201 84/179/199
f 71/95/202 74/98/76 86/96/75 85/97/201
s 11
f 74/98/71 71/99/203 76/100/204 77/153/72
s off
f 71/94/205 72/150/206 75/153/207 76/152/208
s 7
f 72/150/209 73/149/109 78/101/51 75/153/210
f 83/102/110 82/178/211 90/155/212 91/105/47
f 82/178/211 81/103/213 89/106/214 90/155/215
f 81/175/213 80/174/78 92/156/77 89/104/216
f 91/105/47 90/155/217 97/192/218 96/109/48
f 90/155/219 89/106/220 98/193/221 97/192/218
f 89/104/222 92/156/84 99/107/83 98/108/221
f 96/109/48 95/191/223 103/157/224 104/112/49
f 95/191/223 94/110/225 102/113/226 103/157/227
f 94/188/225 93/187/86 105/158/85 102/111/226
f 104/112/49 103/157/228 107/159/229 108/115/52
f 103/157/228 102/113/230 106/116/231 107/159/229
s 17
f 102/111/232 105/158/96 109/160/95 106/114/233
s 7
f 108/115/52 107/159/234 114/206/235 113/205/54
f 107/159/236 106/116/237 115/207/238 114/206/235
f 106/114/237 109/160/100 116/117/99 115/118/238
s 3
f 17/5/13 18/119/12 19/120/239 20/121/240
f 25/124/29 26/125/241 27/126/242 28/9/30
f 37/131/105 38/132/243 39/133/244 40/61/106
f 45/136/43 46/137/245 47/138/246 48/11/44
s off
f 62/141/247 63/142/248 64/143/249 65/144/250 63/145/251
f 75/91/252 78/151/253 79/152/254
s 7
f 57/101/173 49/154/107 50/170/169 119/77/255
f 119/161/255 50/171/169 51/171/167 120/161/256
f 51/162/167 52/172/67 53/74/120 120/73/256
f 120/163/256 53/164/120 54/165/123 121/42/257
f 54/166/123 55/167/58 56/166/175 121/168/257
f 121/169/257 56/167/175 57/173/173 119/78/255
f 119/170/255 120/171/256 121/171/257
f 88/172/137 80/173/78 81/52/213 122/174/258
f 122/175/258 81/176/213 82/177/211 123/103/259
f 82/178/211 83/185/110 84/178/199 123/102/259
f 123/179/259 84/185/199 85/185/201 124/179/260
f 85/180/201 86/186/75 87/97/134 124/96/260
f 124/181/260 87/182/134 88/182/137 122/181/258
f 122/183/258 123/184/259 124/177/260
f 101/185/157 93/186/86 94/65/225 125/187/261
f 125/188/261 94/189/225 95/190/223 126/110/262
f 95/191/223 96/198/48 97/191/218 126/109/262
f 126/192/262 97/198/218 98/198/221 127/192/263
f 98/193/221 99/199/83 100/108/154 127/107/263
f 127/194/263 100/195/154 101/195/157 125/194/261
f 125/196/261 126/197/262 127/190/263
f 118/198/143 110/199/102 111/55/193 128/200/264
f 128/201/264 111/202/193 112/203/196 129/93/265
f 112/204/196 113/212/54 114/204/235 129/205/265
f 129/206/265 114/212/235 115/212/238 130/206/266
f 115/207/238 116/213/99 117/118/140 130/117/266
f 130/208/266 117/209/140 118/209/143 128/208/264
f 128/210/264 129/211/265 130/203/266
