# This file uses centimeters as units for non-parametric coordinates.

mtllib Back Wall.mtl
g default
v -45.000000 -5.500000 0.500000
v 45.000000 -5.500000 0.500000
v -45.000000 5.500000 0.500000
v 45.000000 5.500000 0.500000
v -45.000000 5.500000 -0.500000
v 45.000000 5.500000 -0.500000
v -45.000000 -5.500000 -0.500000
v 45.000000 -5.500000 -0.500000
vt 0.002077 -0.005030
vt 0.998667 -0.005030
vt 0.002077 0.455391
vt 0.998667 0.455391
vt -0.001384 0.548449
vt 0.995206 0.548449
vt -0.002885 0.999805
vt 0.993705 0.999805
vt -0.007309 1.103122
vt 0.989281 1.103122
vt 1.128732 -0.005030
vt 1.128732 0.455391
vt -0.101310 0.004356
vt -0.101310 0.464778
vt 0.993705 0.999805
vt 0.998667 -0.005030
vt -0.002885 0.999805
vt 0.002077 -0.005030
vt 0.995206 0.548449
vt -0.001384 0.548449
vt 0.998667 0.455391
vt 0.998667 0.455391
vt 0.002077 0.455391
vt 0.002077 0.455391
vn 0.000000 0.000000 1.000000
vn 0.000000 0.000000 1.000000
vn 0.000000 0.000000 1.000000
vn 0.000000 0.000000 1.000000
vn 0.000000 1.000000 0.000000
vn 0.000000 1.000000 0.000000
vn 0.000000 1.000000 0.000000
vn 0.000000 1.000000 0.000000
vn 0.000000 0.000000 -1.000000
vn 0.000000 0.000000 -1.000000
vn 0.000000 0.000000 -1.000000
vn 0.000000 0.000000 -1.000000
vn 0.000000 -1.000000 0.000000
vn 0.000000 -1.000000 0.000000
vn 0.000000 -1.000000 0.000000
vn 0.000000 -1.000000 0.000000
vn 1.000000 0.000000 0.000000
vn 1.000000 0.000000 0.000000
vn 1.000000 0.000000 0.000000
vn 1.000000 0.000000 0.000000
vn -1.000000 0.000000 0.000000
vn -1.000000 0.000000 0.000000
vn -1.000000 0.000000 0.000000
vn -1.000000 0.000000 0.000000
s off
g pCube1
usemtl lambert2SG
f 1/18/1 2/2/2 4/21/3 3/23/4
f 3/3/5 4/22/6 6/6/7 5/20/8
f 5/5/9 6/19/10 8/8/11 7/17/12
f 7/7/13 8/15/14 2/10/15 1/9/16
f 2/16/17 8/11/18 6/12/19 4/4/20
f 7/13/21 1/1/22 3/24/23 5/14/24
g default
v -93.428704 -0.000000 -7.773733
v -92.955093 -0.000000 -7.773733
v -93.428704 0.000000 -7.773733
v -92.955093 0.000000 -7.773733
v -93.428704 0.000000 -7.788617
v -92.955093 0.000000 -7.788617
v -93.428704 -0.000000 -7.788617
v -92.955093 -0.000000 -7.788617
vt 0.375000 0.000000
vt 0.625000 0.000000
vt 0.375000 0.250000
vt 0.625000 0.250000
vt 0.375000 0.500000
vt 0.625000 0.500000
vt 0.375000 0.750000
vt 0.625000 0.750000
vt 0.375000 1.000000
vt 0.625000 1.000000
vt 0.875000 0.000000
vt 0.875000 0.250000
vt 0.125000 0.000000
vt 0.125000 0.250000
vn 0.000000 0.000000 1.000000
vn 0.000000 0.000000 1.000000
vn 0.000000 0.000000 1.000000
vn 0.000000 0.000000 1.000000
vn 0.000000 1.000000 0.000000
vn 0.000000 1.000000 0.000000
vn 0.000000 1.000000 0.000000
vn 0.000000 1.000000 0.000000
vn 0.000000 0.000000 -1.000000
vn 0.000000 0.000000 -1.000000
vn 0.000000 0.000000 -1.000000
vn 0.000000 0.000000 -1.000000
vn 0.000000 -1.000000 0.000000
vn 0.000000 -1.000000 0.000000
vn 0.000000 -1.000000 0.000000
vn 0.000000 -1.000000 0.000000
vn 1.000000 0.000000 0.000000
vn 1.000000 0.000000 0.000000
vn 1.000000 0.000000 0.000000
vn 1.000000 0.000000 0.000000
vn -1.000000 0.000000 0.000000
vn -1.000000 0.000000 0.000000
vn -1.000000 0.000000 0.000000
vn -1.000000 0.000000 0.000000
s off
g initialShadingGroup pCube3
f 9/25/25 10/26/26 12/28/27 11/27/28
f 11/27/29 12/28/30 14/30/31 13/29/32
f 13/29/33 14/30/34 16/32/35 15/31/36
f 15/31/37 16/32/38 10/34/39 9/33/40
f 10/26/41 16/35/42 14/36/43 12/28/44
f 15/37/45 9/25/46 11/27/47 13/38/48
