# This file uses centimeters as units for non-parametric coordinates.

mtllib Cadbury.mtl
g default
v 0.464829 0.081419 -0.168500
v 0.464829 0.081419 0.168500
v -0.464829 0.081419 -0.168500
v -0.464829 0.081419 0.168500
v -0.367484 0.021607 0.168500
v -0.333000 0.000419 0.128007
v -0.333000 0.005844 0.148254
v -0.333000 0.020667 0.163075
v -0.333000 0.040915 0.168500
v 0.367484 0.021607 0.168500
v 0.333000 0.040915 0.168500
v 0.333000 0.020667 0.163075
v 0.333000 0.005844 0.148254
v 0.333000 0.000419 0.128007
v -0.367484 0.141231 0.168500
v -0.333000 0.121923 0.168500
v -0.333000 0.142171 0.163075
v -0.333000 0.156994 0.148254
v -0.333000 0.162419 0.128007
v 0.367484 0.141231 0.168500
v 0.333000 0.162419 0.128007
v 0.333000 0.156994 0.148254
v 0.333000 0.142171 0.163075
v 0.333000 0.121923 0.168500
v -0.367484 0.141231 -0.168500
v -0.333000 0.162419 -0.128007
v -0.333000 0.156994 -0.148254
v -0.333000 0.142171 -0.163075
v -0.333000 0.121923 -0.168500
v 0.367484 0.141231 -0.168500
v 0.333000 0.121923 -0.168500
v 0.333000 0.142171 -0.163075
v 0.333000 0.156994 -0.148254
v 0.333000 0.162419 -0.128007
v -0.367484 0.021607 -0.168500
v -0.333000 0.040915 -0.168500
v -0.333000 0.020667 -0.163075
v -0.333000 0.005844 -0.148254
v -0.333000 0.000419 -0.128007
v 0.367484 0.021607 -0.168500
v 0.333000 0.000419 -0.128007
v 0.333000 0.005844 -0.148254
v 0.333000 0.020667 -0.163075
v 0.333000 0.040915 -0.168500
vt 0.814610 0.252080
vt 0.195145 0.252080
vt 0.195145 0.146690
vt 0.814610 0.146690
vt 0.691741 0.638356
vt 0.327699 0.638356
vt 0.327700 0.351192
vt 0.691742 0.351192
vt 0.814259 0.254633
vt 0.189211 0.254633
vt 0.189211 0.144137
vt 0.814259 0.144137
vt 0.915893 0.940070
vt 0.118303 0.940070
vt 0.118303 0.718836
vt 0.915893 0.718836
vt 0.846685 0.277198
vt 0.846685 0.121571
vt 0.937228 0.199385
vt 0.050305 0.683775
vt 0.006243 0.638355
vt 0.006244 0.351191
vt 0.050306 0.305771
vt 0.142041 0.305771
vt 0.142039 0.683775
vt 0.721372 0.683776
vt 0.721373 0.305772
vt 0.877401 0.305772
vt 0.877401 0.683776
vt 0.163071 0.121572
vt 0.163070 0.277198
vt 0.072527 0.199385
vt 0.846623 0.280969
vt 0.846623 0.117801
vt 0.937982 0.199385
vt 0.298069 0.305772
vt 0.298068 0.683775
vt 0.969136 0.305773
vt 0.991992 0.351192
vt 0.991992 0.638356
vt 0.969135 0.683776
vt 0.156847 0.117801
vt 0.156848 0.280969
vt 0.065489 0.199385
vt 0.814610 0.278422
vt 0.195145 0.278422
vt 0.814610 0.297705
vt 0.195145 0.297705
vt 0.897933 0.701340
vt 0.118151 0.701340
vt 0.677487 0.661066
vt 0.341954 0.661066
vt 0.814610 0.101064
vt 0.814610 0.120348
vt 0.195145 0.120348
vt 0.195145 0.101064
vt 0.814259 0.282251
vt 0.189211 0.282252
vt 0.814259 0.302470
vt 0.189211 0.302470
vt 0.677487 0.328482
vt 0.341954 0.328482
vt 0.897933 0.957566
vt 0.118151 0.957566
vt 0.814259 0.096300
vt 0.814259 0.116518
vt 0.189211 0.116518
vt 0.189211 0.096300
vt 0.938308 0.683844
vt 0.077776 0.683844
vt 0.694860 0.683776
vt 0.324580 0.683776
vt 0.694861 0.305772
vt 0.324580 0.305772
vt 0.938309 0.975062
vt 0.077776 0.975062
vn 0.000171 -0.043444 0.999056
vn -0.000170 -0.043444 0.999056
vn -0.000170 0.043444 0.999056
vn 0.000171 0.043444 0.999056
vn -0.153787 0.987996 0.014585
vn 0.153787 0.987996 0.014585
vn 0.153787 0.987996 -0.014585
vn -0.153787 0.987996 -0.014585
vn 0.000171 0.043444 -0.999056
vn -0.000170 0.043444 -0.999056
vn -0.000170 -0.043444 -0.999056
vn 0.000171 -0.043444 -0.999056
vn -0.153787 -0.987996 -0.014585
vn 0.153787 -0.987996 -0.014585
vn 0.153787 -0.987996 0.014585
vn -0.153787 -0.987996 0.014585
vn 0.012204 -0.044084 0.998953
vn 0.000171 -0.043444 0.999056
vn 0.000171 0.043444 0.999056
vn 0.012204 0.044084 0.998953
vn 0.000000 0.000000 1.000000
vn 0.523362 -0.852111 0.000173
vn 0.153787 -0.987996 0.014585
vn 0.153787 -0.987996 -0.014585
vn 0.523362 -0.852111 -0.000173
vn 0.523509 -0.852020 0.000000
vn 0.523509 -0.852020 0.000000
vn -0.523362 0.852111 0.000173
vn -0.153787 0.987996 0.014585
vn -0.153787 0.987996 -0.014585
vn -0.523362 0.852111 -0.000173
vn -0.523509 0.852020 0.000000
vn -0.523509 0.852020 0.000000
vn -0.012204 0.044084 0.998953
vn -0.000170 0.043444 0.999056
vn -0.000170 -0.043444 0.999056
vn -0.012204 -0.044084 0.998953
vn 0.000000 0.000000 1.000000
vn 0.012204 0.044084 -0.998953
vn 0.000171 0.043444 -0.999056
vn 0.000171 -0.043444 -0.999056
vn 0.012204 -0.044084 -0.998953
vn 0.000000 0.000000 -1.000000
vn 0.523362 0.852111 -0.000173
vn 0.153787 0.987996 -0.014585
vn 0.153787 0.987996 0.014585
vn 0.523362 0.852111 0.000173
vn 0.523509 0.852020 0.000000
vn 0.523509 0.852020 0.000000
vn -0.523362 -0.852111 -0.000173
vn -0.153787 -0.987996 -0.014585
vn -0.153787 -0.987996 0.014585
vn -0.523362 -0.852111 0.000173
vn -0.523509 -0.852020 0.000000
vn -0.523509 -0.852020 0.000000
vn -0.012204 -0.044084 -0.998953
vn -0.000170 -0.043444 -0.999056
vn -0.000170 0.043444 -0.999056
vn -0.012204 0.044084 -0.998953
vn 0.000000 0.000000 -1.000000
vn 0.000171 -0.043444 0.999056
vn 0.003092 -0.500657 0.865640
vn -0.003092 -0.500658 0.865640
vn -0.000170 -0.043444 0.999056
vn 0.003092 -0.500657 0.865640
vn 0.000658 -0.707080 0.707134
vn -0.000658 -0.707080 0.707134
vn -0.003092 -0.500658 0.865640
vn -0.011416 -0.965858 0.258820
vn -0.153787 -0.987996 0.014585
vn 0.153787 -0.987996 0.014585
vn 0.011416 -0.965858 0.258820
vn -0.153787 0.987996 0.014585
vn -0.011416 0.965858 0.258820
vn 0.011416 0.965858 0.258820
vn 0.153787 0.987996 0.014585
vn 0.000658 0.707080 0.707134
vn 0.003092 0.500657 0.865640
vn -0.003092 0.500658 0.865640
vn -0.000658 0.707080 0.707134
vn 0.003092 0.500657 0.865640
vn 0.000171 0.043444 0.999056
vn -0.000170 0.043444 0.999056
vn -0.003092 0.500658 0.865640
vn 0.000171 0.043444 -0.999056
vn 0.003092 0.500657 -0.865640
vn -0.003092 0.500658 -0.865640
vn -0.000170 0.043444 -0.999056
vn 0.003092 0.500657 -0.865640
vn 0.000658 0.707080 -0.707134
vn -0.000658 0.707080 -0.707134
vn -0.003092 0.500658 -0.865640
vn -0.011416 0.965858 -0.258820
vn -0.153787 0.987996 -0.014585
vn 0.153787 0.987996 -0.014585
vn 0.011416 0.965858 -0.258820
vn -0.153787 -0.987996 -0.014585
vn -0.011416 -0.965858 -0.258820
vn 0.011416 -0.965858 -0.258820
vn 0.153787 -0.987996 -0.014585
vn 0.000658 -0.707080 -0.707134
vn 0.003092 -0.500657 -0.865640
vn -0.003092 -0.500658 -0.865640
vn -0.000658 -0.707080 -0.707134
vn 0.003092 -0.500657 -0.865640
vn 0.000171 -0.043444 -0.999056
vn -0.000170 -0.043444 -0.999056
vn -0.003092 -0.500658 -0.865640
vn -0.523362 -0.852111 0.000173
vn -0.153787 -0.987996 0.014585
vn -0.011416 -0.965858 0.258820
vn 0.012204 -0.044084 0.998953
vn 0.000658 -0.707080 0.707134
vn 0.003092 -0.500657 0.865640
vn 0.012204 -0.044084 0.998953
vn 0.003092 -0.500657 0.865640
vn 0.000171 -0.043444 0.999056
vn -0.012204 -0.044084 0.998953
vn -0.000170 -0.043444 0.999056
vn -0.003092 -0.500658 0.865640
vn -0.012204 -0.044084 0.998953
vn -0.003092 -0.500658 0.865640
vn -0.000658 -0.707080 0.707134
vn 0.523362 -0.852111 0.000173
vn 0.011416 -0.965858 0.258820
vn 0.153787 -0.987996 0.014585
vn 0.012204 0.044084 0.998953
vn 0.000171 0.043444 0.999056
vn 0.003092 0.500657 0.865640
vn 0.012204 0.044084 0.998953
vn 0.003092 0.500657 0.865640
vn 0.000658 0.707080 0.707134
vn -0.523362 0.852111 0.000173
vn -0.011416 0.965858 0.258820
vn -0.153787 0.987996 0.014585
vn 0.523362 0.852111 0.000173
vn 0.153787 0.987996 0.014585
vn 0.011416 0.965858 0.258820
vn -0.012204 0.044084 0.998953
vn -0.000658 0.707080 0.707134
vn -0.003092 0.500658 0.865640
vn -0.012204 0.044084 0.998953
vn -0.003092 0.500658 0.865640
vn -0.000170 0.043444 0.999056
vn -0.523362 0.852111 -0.000173
vn -0.153787 0.987996 -0.014585
vn -0.011416 0.965858 -0.258820
vn 0.012204 0.044084 -0.998953
vn 0.000658 0.707080 -0.707134
vn 0.003092 0.500657 -0.865640
vn 0.012204 0.044084 -0.998953
vn 0.003092 0.500657 -0.865640
vn 0.000171 0.043444 -0.999056
vn -0.012204 0.044084 -0.998953
vn -0.000170 0.043444 -0.999056
vn -0.003092 0.500658 -0.865640
vn -0.012204 0.044084 -0.998953
vn -0.003092 0.500658 -0.865640
vn -0.000658 0.707080 -0.707134
vn 0.523362 0.852111 -0.000173
vn 0.011416 0.965858 -0.258820
vn 0.153787 0.987996 -0.014585
vn 0.012204 -0.044084 -0.998953
vn 0.000171 -0.043444 -0.999056
vn 0.003092 -0.500657 -0.865640
vn 0.012204 -0.044084 -0.998953
vn 0.003092 -0.500657 -0.865640
vn 0.000658 -0.707080 -0.707134
vn -0.523362 -0.852111 -0.000173
vn -0.011416 -0.965858 -0.258820
vn -0.153787 -0.987996 -0.014585
vn 0.523362 -0.852111 -0.000173
vn 0.153787 -0.987996 -0.014585
vn 0.011416 -0.965858 -0.258820
vn -0.012204 -0.044084 -0.998953
vn -0.000658 -0.707080 -0.707134
vn -0.003092 -0.500658 -0.865640
vn -0.012204 -0.044084 -0.998953
vn -0.003092 -0.500658 -0.865640
vn -0.000170 -0.043444 -0.999056
s off
g Cadbury:pCube1
usemtl initialShadingGroup
f 9/1/1 11/2/2 24/3/3 16/4/4
f 19/5/5 21/6/6 34/7/7 26/8/8
f 29/9/9 31/10/10 44/11/11 36/12/12
f 39/13/13 41/14/14 14/15/15 6/16/16
f 5/17/17 9/1/18 16/4/19 15/18/20 4/19/21
f 10/20/22 14/21/23 41/22/24 40/23/25 1/24/26 2/25/27
f 15/26/28 19/5/29 26/8/30 25/27/31 3/28/32 4/29/33
f 20/30/34 24/3/35 11/2/36 10/31/37 2/32/38
f 25/33/39 29/9/40 36/12/41 35/34/42 3/35/43
f 30/36/44 34/7/45 21/6/46 20/37/47 2/25/48 1/24/49
f 35/38/50 39/39/51 6/40/52 5/41/53 4/29/54 3/28/55
f 40/42/56 44/11/57 31/10/58 30/43/59 1/44/60
f 9/1/61 8/45/62 12/46/63 11/2/64
f 8/45/65 7/47/66 13/48/67 12/46/68
f 7/49/69 6/16/70 14/15/71 13/50/72
f 19/5/73 18/51/74 22/52/75 21/6/76
f 18/53/77 17/54/78 23/55/79 22/56/80
f 17/54/81 16/4/82 24/3/83 23/55/84
f 29/9/85 28/57/86 32/58/87 31/10/88
f 28/57/89 27/59/90 33/60/91 32/58/92
f 27/61/93 26/8/94 34/7/95 33/62/96
f 39/13/97 38/63/98 42/64/99 41/14/100
f 38/65/101 37/66/102 43/67/103 42/68/104
f 37/66/105 36/12/106 44/11/107 43/67/108
f 5/69/109 6/16/110 7/49/111
f 5/17/112 7/47/113 8/45/114
f 5/17/115 8/45/116 9/1/117
f 10/31/118 11/2/119 12/46/120
f 10/31/121 12/46/122 13/48/123
f 10/70/124 13/50/125 14/15/126
f 15/18/127 16/4/128 17/54/129
f 15/18/130 17/54/131 18/53/132
f 15/71/133 18/51/134 19/5/135
f 20/72/136 21/6/137 22/52/138
f 20/30/139 22/56/140 23/55/141
f 20/30/142 23/55/143 24/3/144
f 25/73/145 26/8/146 27/61/147
f 25/33/148 27/59/149 28/57/150
f 25/33/151 28/57/152 29/9/153
f 30/43/154 31/10/155 32/58/156
f 30/43/157 32/58/158 33/60/159
f 30/74/160 33/62/161 34/7/162
f 35/34/163 36/12/164 37/66/165
f 35/34/166 37/66/167 38/65/168
f 35/75/169 38/63/170 39/13/171
f 40/76/172 41/14/173 42/64/174
f 40/42/175 42/68/176 43/67/177
f 40/42/178 43/67/179 44/11/180
