# This file uses centimeters as units for non-parametric coordinates.

mtllib Cadbury.mtl
g default1
v -0.350000 0.001531 0.200000
v 0.350000 0.001531 0.200000
v -0.350000 0.251531 0.200000
v 0.350000 0.251531 0.200000
v -0.350000 0.251531 -0.200000
v 0.350000 0.251531 -0.200000
v -0.350000 0.001531 -0.200000
v 0.350000 0.001531 -0.200000
vt 0.108691 0.970566
vt 0.907484 0.970566
vt 0.907484 0.702704
vt 0.108691 0.702704
vt 0.162969 0.350048
vt 0.804265 0.350048
vt 0.804265 0.650395
vt 0.162969 0.650395
vt 0.072088 0.099058
vt 0.913764 0.099058
vt 0.913764 0.275981
vt 0.072087 0.275981
vt 0.870793 0.491584
vt 0.870793 0.324379
vt 0.937675 0.324379
vt 0.937675 0.491584
vt 0.921340 0.559462
vt 0.921340 0.492580
vt 0.963141 0.492580
vt 0.963141 0.559462
vt 0.878008 0.559462
vt 0.878008 0.492580
vt 0.919809 0.492580
vt 0.919809 0.559462
vn 0.000000 0.000000 1.000000
vn 0.000000 0.000000 1.000000
vn 0.000000 0.000000 1.000000
vn 0.000000 0.000000 1.000000
vn 0.000000 1.000000 0.000000
vn 0.000000 1.000000 0.000000
vn 0.000000 1.000000 0.000000
vn 0.000000 1.000000 0.000000
vn 0.000000 0.000000 -1.000000
vn 0.000000 0.000000 -1.000000
vn 0.000000 0.000000 -1.000000
vn 0.000000 0.000000 -1.000000
vn 0.000000 -1.000000 0.000000
vn 0.000000 -1.000000 0.000000
vn 0.000000 -1.000000 0.000000
vn 0.000000 -1.000000 0.000000
vn 1.000000 0.000000 0.000000
vn 1.000000 0.000000 0.000000
vn 1.000000 0.000000 0.000000
vn 1.000000 0.000000 0.000000
vn -1.000000 0.000000 0.000000
vn -1.000000 0.000000 0.000000
vn -1.000000 0.000000 0.000000
vn -1.000000 0.000000 0.000000
s off
g initialShadingGroup initialShadingGroup1 pCube4 polySurface1
f 1/1/1 2/2/2 4/3/3 3/4/4
f 3/5/5 4/6/6 6/7/7 5/8/8
f 5/9/9 6/10/10 8/11/11 7/12/12
f 7/13/13 8/14/14 2/15/15 1/16/16
f 2/17/17 8/18/18 6/19/19 4/20/20
f 7/21/21 1/22/22 3/23/23 5/24/24
