# This file uses centimeters as units for non-parametric coordinates.

mtllib Ceiling.mtl
g default
v -44.265975 -0.500000 37.852300
v 45.734025 -0.500000 37.852300
v -44.265975 0.500000 37.852300
v 45.734025 0.500000 37.852300
v -44.265975 0.500000 -37.147700
v 45.734025 0.500000 -37.147700
v -44.265975 -0.500000 -37.147700
v 45.734025 -0.500000 -37.147700
vt 0.834591 0.997694
vt 0.834591 0.961428
vt 0.834944 0.961428
vt 0.834944 0.997694
vt 0.822989 1.000332
vt 0.822989 0.925319
vt 0.981394 0.925319
vt 0.981394 1.000332
vt 0.840144 0.996545
vt 0.840144 0.960279
vt 0.840497 0.960279
vt 0.840497 0.996545
vt 0.003792 0.999753
vt 0.003792 0.000055
vt 0.774950 0.000055
vt 0.774950 0.999753
vt 0.826233 0.998860
vt 0.826233 0.968638
vt 0.826586 0.968638
vt 0.826586 0.998860
vt 0.829644 0.998960
vt 0.829644 0.968739
vt 0.829997 0.968739
vt 0.829997 0.998960
vn 0.000000 0.000000 1.000000
vn 0.000000 0.000000 1.000000
vn 0.000000 0.000000 1.000000
vn 0.000000 0.000000 1.000000
vn 0.000000 1.000000 0.000000
vn 0.000000 1.000000 0.000000
vn 0.000000 1.000000 0.000000
vn 0.000000 1.000000 0.000000
vn 0.000000 0.000000 -1.000000
vn 0.000000 0.000000 -1.000000
vn 0.000000 0.000000 -1.000000
vn 0.000000 0.000000 -1.000000
vn 0.000000 -1.000000 0.000000
vn 0.000000 -1.000000 0.000000
vn 0.000000 -1.000000 0.000000
vn 0.000000 -1.000000 0.000000
vn 1.000000 0.000000 0.000000
vn 1.000000 0.000000 0.000000
vn 1.000000 0.000000 0.000000
vn 1.000000 0.000000 0.000000
vn -1.000000 0.000000 0.000000
vn -1.000000 0.000000 0.000000
vn -1.000000 0.000000 0.000000
vn -1.000000 0.000000 0.000000
s off
g pCube1
usemtl initialShadingGroup
f 1/1/1 2/2/2 4/3/3 3/4/4
f 3/5/5 4/6/6 6/7/7 5/8/8
f 5/9/9 6/10/10 8/11/11 7/12/12
f 7/13/13 8/14/14 2/15/15 1/16/16
f 2/17/17 8/18/18 6/19/19 4/20/20
f 7/21/21 1/22/22 3/23/23 5/24/24
