# This file uses centimeters as units for non-parametric coordinates.

mtllib L shape wall.mtl
g default
v -0.500000 -2.500000 0.500000
v 0.500000 -2.500000 0.500000
v -0.500000 2.500000 0.500000
v 0.500000 2.500000 0.500000
v -0.500000 2.500000 -0.500000
v 0.500000 2.500000 -0.500000
v -0.500000 -2.500000 -0.500000
v 0.500000 -2.500000 -0.500000
v 20.500000 -2.500000 -0.500000
v 20.500000 -2.500000 0.500000
v 20.500000 2.500000 -0.500000
v 20.500000 2.500000 0.500000
v -0.500000 -2.500000 8.500000
v 0.500000 -2.500000 8.500000
v 0.500000 2.500000 8.500000
v -0.500000 2.500000 8.500000
vt 0.375000 0.000000
vt 0.625000 0.000000
vt 0.375000 0.250000
vt 0.625000 0.250000
vt 0.375000 0.500000
vt 0.625000 0.500000
vt 0.375000 0.750000
vt 0.625000 0.750000
vt 0.375000 1.000000
vt 0.625000 1.000000
vt 0.875000 0.000000
vt 0.875000 0.250000
vt 0.125000 0.000000
vt 0.125000 0.250000
vt 0.625000 0.000000
vt 0.875000 0.000000
vt 0.875000 0.250000
vt 0.625000 0.250000
vt 0.375000 0.000000
vt 0.625000 0.000000
vt 0.625000 0.250000
vt 0.375000 0.250000
vn 0.000000 0.000000 1.000000
vn 0.000000 0.000000 1.000000
vn 0.000000 0.000000 1.000000
vn 0.000000 0.000000 1.000000
vn 0.000000 1.000000 0.000000
vn 0.000000 1.000000 0.000000
vn 0.000000 1.000000 0.000000
vn 0.000000 1.000000 0.000000
vn 0.000000 0.000000 -1.000000
vn 0.000000 0.000000 -1.000000
vn 0.000000 0.000000 -1.000000
vn 0.000000 0.000000 -1.000000
vn 0.000000 -1.000000 0.000000
vn 0.000000 -1.000000 0.000000
vn 0.000000 -1.000000 0.000000
vn 0.000000 -1.000000 0.000000
vn 1.000000 0.000000 0.000000
vn 1.000000 0.000000 0.000000
vn 1.000000 0.000000 0.000000
vn 1.000000 0.000000 0.000000
vn -1.000000 0.000000 0.000000
vn -1.000000 0.000000 0.000000
vn -1.000000 0.000000 0.000000
vn -1.000000 0.000000 0.000000
vn 0.000000 -1.000000 0.000000
vn 0.000000 -1.000000 0.000000
vn 0.000000 0.000000 -1.000000
vn 0.000000 0.000000 -1.000000
vn 0.000000 1.000000 0.000000
vn 0.000000 1.000000 0.000000
vn 0.000000 0.000000 1.000000
vn 0.000000 0.000000 1.000000
vn 0.000000 0.000000 1.000000
vn 0.000000 0.000000 1.000000
vn 0.000000 -1.000000 0.000000
vn 0.000000 -1.000000 0.000000
vn 1.000000 0.000000 0.000000
vn 1.000000 0.000000 0.000000
vn 1.000000 0.000000 0.000000
vn 1.000000 0.000000 0.000000
vn 0.000000 1.000000 0.000000
vn 0.000000 1.000000 0.000000
vn -1.000000 0.000000 0.000000
vn -1.000000 0.000000 0.000000
s off
g pCube1
usemtl lambert2SG
f 13/19/1 14/20/2 15/21/3 16/22/4
s 1
f 3/3/5 4/4/6 6/6/7 5/5/8
s 2
f 5/5/9 6/6/10 8/8/11 7/7/12
s 3
f 7/7/13 8/8/14 2/10/15 1/9/16
s off
f 10/15/17 9/16/18 11/17/19 12/18/20
s 4
f 7/13/21 1/1/22 3/3/23 5/14/24
s 3
f 2/2/15 8/11/14 9/16/25 10/15/26
s 2
f 8/11/11 6/12/10 11/17/27 9/16/28
s 1
f 6/12/7 4/4/6 12/18/29 11/17/30
s off
f 4/4/31 2/2/32 10/15/33 12/18/34
s 3
f 1/1/16 2/2/15 14/20/35 13/19/36
s off
f 2/2/37 4/4/38 15/21/39 14/20/40
s 1
f 4/4/6 3/3/5 16/22/41 15/21/42
s 4
f 3/3/23 1/1/22 13/19/43 16/22/44
