# This file uses centimeters as units for non-parametric coordinates.

mtllib Left Wall.mtl
g default
v -93.428704 -0.000000 -7.773733
v -92.955093 -0.000000 -7.773733
v -93.428704 0.000000 -7.773733
v -92.955093 0.000000 -7.773733
v -93.428704 0.000000 -7.788617
v -92.955093 0.000000 -7.788617
v -93.428704 -0.000000 -7.788617
v -92.955093 -0.000000 -7.788617
vt 0.375000 0.000000
vt 0.625000 0.000000
vt 0.375000 0.250000
vt 0.625000 0.250000
vt 0.375000 0.500000
vt 0.625000 0.500000
vt 0.375000 0.750000
vt 0.625000 0.750000
vt 0.375000 1.000000
vt 0.625000 1.000000
vt 0.875000 0.000000
vt 0.875000 0.250000
vt 0.125000 0.000000
vt 0.125000 0.250000
vn 0.000000 0.000000 1.000000
vn 0.000000 0.000000 1.000000
vn 0.000000 0.000000 1.000000
vn 0.000000 0.000000 1.000000
vn 0.000000 1.000000 0.000000
vn 0.000000 1.000000 0.000000
vn 0.000000 1.000000 0.000000
vn 0.000000 1.000000 0.000000
vn 0.000000 0.000000 -1.000000
vn 0.000000 0.000000 -1.000000
vn 0.000000 0.000000 -1.000000
vn 0.000000 0.000000 -1.000000
vn 0.000000 -1.000000 0.000000
vn 0.000000 -1.000000 0.000000
vn 0.000000 -1.000000 0.000000
vn 0.000000 -1.000000 0.000000
vn 1.000000 0.000000 0.000000
vn 1.000000 0.000000 0.000000
vn 1.000000 0.000000 0.000000
vn 1.000000 0.000000 0.000000
vn -1.000000 0.000000 0.000000
vn -1.000000 0.000000 0.000000
vn -1.000000 0.000000 0.000000
vn -1.000000 0.000000 0.000000
s off
g initialShadingGroup pCube3
f 1/1/1 2/2/2 4/4/3 3/3/4
f 3/3/5 4/4/6 6/6/7 5/5/8
f 5/5/9 6/6/10 8/8/11 7/7/12
f 7/7/13 8/8/14 2/10/15 1/9/16
f 2/2/17 8/11/18 6/12/19 4/4/20
f 7/13/21 1/1/22 3/3/23 5/14/24
g default
v 0.500000 -5.500000 37.500000
v 0.500000 -5.500000 -37.500000
v 0.500000 5.500000 37.500000
v 0.500000 5.500000 -37.500000
v -0.500000 5.500000 37.500000
v -0.500000 5.500000 -37.500000
v -0.500000 -5.500000 37.500000
v -0.500000 -5.500000 -37.500000
vt 0.000556 0.000690
vt 0.996572 0.000691
vt 0.996572 0.457002
vt 0.000556 0.457002
vt 0.273438 0.371454
vt 0.286718 0.371454
vt 0.996572 0.546525
vt 0.000556 0.546525
vt 0.286718 0.225371
vt 0.273438 0.225371
vt 0.996572 0.999983
vt 0.000556 0.999983
vt 0.253440 0.371454
vt 0.266720 0.371454
vt 0.999295 1.658798
vt 0.003279 1.658798
vt 0.253440 0.225371
vt 0.266720 0.225371
vn 1.000000 0.000000 0.000000
vn 1.000000 0.000000 0.000000
vn 1.000000 0.000000 0.000000
vn 1.000000 0.000000 0.000000
vn 0.000000 1.000000 0.000000
vn 0.000000 1.000000 0.000000
vn 0.000000 1.000000 0.000000
vn 0.000000 1.000000 0.000000
vn -1.000000 0.000000 -0.000000
vn -1.000000 0.000000 -0.000000
vn -1.000000 0.000000 -0.000000
vn -1.000000 0.000000 -0.000000
vn 0.000000 -1.000000 0.000000
vn 0.000000 -1.000000 0.000000
vn 0.000000 -1.000000 0.000000
vn 0.000000 -1.000000 0.000000
vn 0.000000 0.000000 -1.000000
vn 0.000000 0.000000 -1.000000
vn 0.000000 0.000000 -1.000000
vn 0.000000 0.000000 -1.000000
vn -0.000000 0.000000 1.000000
vn -0.000000 0.000000 1.000000
vn -0.000000 0.000000 1.000000
vn -0.000000 0.000000 1.000000
s off
g pCube4
usemtl lambert3SG
f 9/15/25 10/16/26 12/17/27 11/18/28
f 11/18/29 12/17/30 14/21/31 13/22/32
f 13/22/33 14/21/34 16/25/35 15/26/36
f 15/26/37 16/25/38 10/29/39 9/30/40
f 10/31/41 16/32/42 14/28/43 12/27/44
f 15/24/45 9/23/46 11/20/47 13/19/48
