# This file uses centimeters as units for non-parametric coordinates.

mtllib milk.mtl
g default
v -0.190277 -0.504201 0.178728
v 0.190277 -0.504201 0.178728
v -0.190277 0.504201 0.178728
v 0.190277 0.504201 0.178728
v -0.190277 0.504201 -0.178728
v 0.190277 0.504201 -0.178728
v -0.190277 -0.504201 -0.178728
v 0.190277 -0.504201 -0.178728
v 0.190277 0.635783 0.000000
v -0.190277 0.635783 -0.000000
vt 0.717363 0.281267
vt 0.199526 0.911908
vt 0.503212 0.281267
vt 0.096824 0.840334
vt 0.303337 0.839649
vt 0.503709 0.839649
vt 0.596579 0.009591
vt 0.846579 0.009591
vt 0.596579 0.259591
vt 0.846579 0.259591
vt 0.096824 0.280828
vt 0.302228 0.280828
vt 0.503212 0.842027
vt 0.610287 0.913761
vt 0.503709 0.279414
vt 0.302228 0.840334
vt 0.717363 0.842027
vt 0.303337 0.279414
vt 0.717434 0.282046
vt 0.921486 0.282046
vt 0.921486 0.845471
vt 0.717434 0.845471
vt 0.921486 0.917546
vt 0.717434 0.917546
vt 0.303337 0.911316
vt 0.503709 0.911316
vn 0.000000 0.000000 1.000000
vn 0.000000 0.000000 1.000000
vn 0.000000 0.000000 1.000000
vn 0.000000 0.000000 1.000000
vn -0.000000 0.805296 0.592872
vn -0.000000 0.805296 0.592872
vn -0.000000 0.805296 0.592872
vn -0.000000 0.805296 0.592872
vn 0.000000 0.000000 -1.000000
vn 0.000000 0.000000 -1.000000
vn 0.000000 0.000000 -1.000000
vn 0.000000 0.000000 -1.000000
vn 0.000000 -1.000000 0.000000
vn 0.000000 -1.000000 0.000000
vn 0.000000 -1.000000 0.000000
vn 0.000000 -1.000000 0.000000
vn 1.000000 0.000000 0.000000
vn 1.000000 0.000000 0.000000
vn 1.000000 0.000000 0.000000
vn 1.000000 0.000000 0.000000
vn 1.000000 0.000000 0.000000
vn -1.000000 0.000000 0.000000
vn -1.000000 0.000000 0.000000
vn -1.000000 0.000000 0.000000
vn -1.000000 0.000000 0.000000
vn -1.000000 0.000000 0.000000
vn 0.000000 0.805296 -0.592872
vn 0.000000 0.805296 -0.592872
vn 0.000000 0.805296 -0.592872
vn 0.000000 0.805296 -0.592872
s off
g pCube1
usemtl lambert2SG
f 1/19/1 2/20/2 4/21/3 3/22/4
f 3/22/5 4/21/6 9/23/7 10/24/8
f 5/5/9 6/6/10 8/15/11 7/18/12
f 8/8/13 2/10/14 1/9/15 7/7/16
f 9/2/17 4/4/18 2/11/19 8/12/20 6/16/21
f 7/1/22 1/3/23 3/13/24 10/14/25 5/17/26
f 10/25/27 9/26/28 6/6/29 5/5/30
