# This file uses centimeters as units for non-parametric coordinates.

mtllib PizzaHut.mtl
g default
v -1.207777 -0.241555 1.207777
v 1.207777 -0.241555 1.207777
v -1.207777 0.241555 1.207777
v 1.207777 0.241555 1.207777
v -1.207777 0.241555 -1.207777
v 1.207777 0.241555 -1.207777
v -1.207777 -0.241555 -1.207777
v 1.207777 -0.241555 -1.207777
vt 0.252366 0.237370
vt 0.163713 0.246673
vt 0.005241 0.008026
vt 0.950135 0.404304
vt 0.384910 0.204328
vt 0.994759 0.997545
vt 0.208161 0.873930
vt 0.373349 0.192766
vt 0.208161 0.862369
vt 0.196599 0.862369
vt 0.938573 0.415865
vt 0.938573 0.404304
vt 0.274809 0.237370
vt 0.274809 0.214927
vt 0.196599 0.873930
vt 0.950135 0.415865
vt 0.384910 0.192766
vt 0.142631 0.246673
vt 0.373349 0.204328
vt 0.005241 0.997545
vt 0.163713 0.267756
vt 0.994759 0.008026
vt 0.142631 0.267756
vt 0.252366 0.214927
vn 0.000000 0.000000 1.000000
vn 0.000000 0.000000 1.000000
vn 0.000000 0.000000 1.000000
vn 0.000000 0.000000 1.000000
vn 0.000000 1.000000 0.000000
vn 0.000000 1.000000 0.000000
vn 0.000000 1.000000 0.000000
vn 0.000000 1.000000 0.000000
vn 0.000000 0.000000 -1.000000
vn 0.000000 0.000000 -1.000000
vn 0.000000 0.000000 -1.000000
vn 0.000000 0.000000 -1.000000
vn 0.000000 -1.000000 0.000000
vn 0.000000 -1.000000 0.000000
vn 0.000000 -1.000000 0.000000
vn 0.000000 -1.000000 0.000000
vn 1.000000 0.000000 0.000000
vn 1.000000 0.000000 0.000000
vn 1.000000 0.000000 0.000000
vn 1.000000 0.000000 0.000000
vn -1.000000 0.000000 0.000000
vn -1.000000 0.000000 0.000000
vn -1.000000 0.000000 0.000000
vn -1.000000 0.000000 0.000000
s off
g Pizza_Box:pCube1
usemtl Pizza_Box:lambert2SG
f 1/18/1 2/2/2 4/21/3 3/23/4
f 3/3/5 4/22/6 6/6/7 5/20/8
f 5/5/9 6/19/10 8/8/11 7/17/12
f 7/7/13 8/15/14 2/10/15 1/9/16
f 2/16/17 8/11/18 6/12/19 4/4/20
f 7/13/21 1/1/22 3/24/23 5/14/24
