# This file uses centimeters as units for non-parametric coordinates.

mtllib playerLeftArm.mtl
g default
v -0.676575 5.138614 -1.987006
v 0.676575 5.138614 -1.987006
v -0.676575 10.138614 -1.987006
v 0.676575 10.138614 -1.987006
v -0.676575 10.138614 -3.568130
v 0.676575 10.138614 -3.568130
v -0.676575 5.138614 -3.568130
v 0.676575 5.138614 -3.568130
vt 0.748559 0.014855
vt 0.796316 0.014855
vt 0.796316 0.365546
vt 0.748559 0.365546
vt 0.698832 0.374394
vt 0.807146 0.374394
vt 0.807146 0.478027
vt 0.698832 0.478027
vt 0.747934 0.016714
vt 0.795691 0.016714
vt 0.795691 0.367405
vt 0.747934 0.367405
vt 0.695809 0.374552
vt 0.802895 0.374552
vt 0.802895 0.483259
vt 0.695809 0.483259
vt 0.738277 0.009220
vt 0.795345 0.009220
vt 0.795345 0.371574
vt 0.738277 0.371574
vt 0.737796 0.009220
vt 0.794864 0.009220
vt 0.794864 0.371574
vt 0.737796 0.371574
vn 0.000000 0.000000 1.000000
vn 0.000000 0.000000 1.000000
vn 0.000000 0.000000 1.000000
vn 0.000000 0.000000 1.000000
vn 0.000000 1.000000 0.000000
vn 0.000000 1.000000 0.000000
vn 0.000000 1.000000 0.000000
vn 0.000000 1.000000 0.000000
vn 0.000000 0.000000 -1.000000
vn 0.000000 0.000000 -1.000000
vn 0.000000 0.000000 -1.000000
vn 0.000000 0.000000 -1.000000
vn 0.000000 -1.000000 0.000000
vn 0.000000 -1.000000 0.000000
vn 0.000000 -1.000000 0.000000
vn 0.000000 -1.000000 0.000000
vn 1.000000 0.000000 0.000000
vn 1.000000 0.000000 0.000000
vn 1.000000 0.000000 0.000000
vn 1.000000 0.000000 0.000000
vn -1.000000 0.000000 0.000000
vn -1.000000 0.000000 0.000000
vn -1.000000 0.000000 0.000000
vn -1.000000 0.000000 0.000000
s off
g pasted__pasted__polySurface4 pasted__pasted__pCube7 pasted__group group
usemtl lambert2SG
f 1/1/1 2/2/2 4/3/3 3/4/4
f 3/5/5 4/6/6 6/7/7 5/8/8
f 5/9/9 6/10/10 8/11/11 7/12/12
f 7/13/13 8/14/14 2/15/15 1/16/16
f 2/17/17 8/18/18 6/19/19 4/20/20
f 7/21/21 1/22/22 3/23/23 5/24/24
