# This file uses centimeters as units for non-parametric coordinates.

mtllib playerArms.mtl
g default
v -0.676575 5.138614 3.538620
v 0.676575 5.138614 3.538620
v -0.676575 10.138614 3.538620
v 0.676575 10.138614 3.538620
v -0.676575 10.138614 1.957496
v 0.676575 10.138614 1.957496
v -0.676575 5.138614 1.957496
v 0.676575 5.138614 1.957496
vt 0.745371 0.011182
vt 0.796376 0.011182
vt 0.796376 0.368792
vt 0.745371 0.368792
vt 0.695967 0.377349
vt 0.804282 0.377349
vt 0.804282 0.480982
vt 0.695967 0.480982
vt 0.744158 0.010536
vt 0.795163 0.010536
vt 0.795163 0.368146
vt 0.744158 0.368146
vt 0.700273 0.376119
vt 0.802296 0.376119
vt 0.802296 0.481777
vt 0.700273 0.481777
vt 0.737661 0.015072
vt 0.797259 0.015072
vt 0.797259 0.370414
vt 0.737661 0.370414
vt 0.737962 0.011592
vt 0.797561 0.011592
vt 0.797561 0.369202
vt 0.737962 0.369202
vn 0.000000 0.000000 1.000000
vn 0.000000 0.000000 1.000000
vn 0.000000 0.000000 1.000000
vn 0.000000 0.000000 1.000000
vn 0.000000 1.000000 0.000000
vn 0.000000 1.000000 0.000000
vn 0.000000 1.000000 0.000000
vn 0.000000 1.000000 0.000000
vn 0.000000 0.000000 -1.000000
vn 0.000000 0.000000 -1.000000
vn 0.000000 0.000000 -1.000000
vn 0.000000 0.000000 -1.000000
vn 0.000000 -1.000000 0.000000
vn 0.000000 -1.000000 0.000000
vn 0.000000 -1.000000 0.000000
vn 0.000000 -1.000000 0.000000
vn 1.000000 0.000000 0.000000
vn 1.000000 0.000000 0.000000
vn 1.000000 0.000000 0.000000
vn 1.000000 0.000000 0.000000
vn -1.000000 0.000000 0.000000
vn -1.000000 0.000000 0.000000
vn -1.000000 0.000000 0.000000
vn -1.000000 0.000000 0.000000
s off
g pasted__polySurface4 pasted__pCube7 group
usemtl lambert2SG
f 1/1/1 2/2/2 4/3/3 3/4/4
f 3/5/5 4/6/6 6/7/7 5/8/8
f 5/9/9 6/10/10 8/11/11 7/12/12
f 7/13/13 8/14/14 2/15/15 1/16/16
f 2/17/17 8/18/18 6/19/19 4/20/20
f 7/21/21 1/22/22 3/23/23 5/24/24
g default
v -0.676575 5.138614 -1.987006
v 0.676575 5.138614 -1.987006
v -0.676575 10.138614 -1.987006
v 0.676575 10.138614 -1.987006
v -0.676575 10.138614 -3.568130
v 0.676575 10.138614 -3.568130
v -0.676575 5.138614 -3.568130
v 0.676575 5.138614 -3.568130
vt 0.748559 0.014855
vt 0.796316 0.014855
vt 0.796316 0.365546
vt 0.748559 0.365546
vt 0.698832 0.374394
vt 0.807146 0.374394
vt 0.807146 0.478027
vt 0.698832 0.478027
vt 0.747934 0.016714
vt 0.795691 0.016714
vt 0.795691 0.367405
vt 0.747934 0.367405
vt 0.695809 0.374552
vt 0.802895 0.374552
vt 0.802895 0.483259
vt 0.695809 0.483259
vt 0.738277 0.009220
vt 0.795345 0.009220
vt 0.795345 0.371574
vt 0.738277 0.371574
vt 0.737796 0.009220
vt 0.794864 0.009220
vt 0.794864 0.371574
vt 0.737796 0.371574
vn 0.000000 0.000000 1.000000
vn 0.000000 0.000000 1.000000
vn 0.000000 0.000000 1.000000
vn 0.000000 0.000000 1.000000
vn 0.000000 1.000000 0.000000
vn 0.000000 1.000000 0.000000
vn 0.000000 1.000000 0.000000
vn 0.000000 1.000000 0.000000
vn 0.000000 0.000000 -1.000000
vn 0.000000 0.000000 -1.000000
vn 0.000000 0.000000 -1.000000
vn 0.000000 0.000000 -1.000000
vn 0.000000 -1.000000 0.000000
vn 0.000000 -1.000000 0.000000
vn 0.000000 -1.000000 0.000000
vn 0.000000 -1.000000 0.000000
vn 1.000000 0.000000 0.000000
vn 1.000000 0.000000 0.000000
vn 1.000000 0.000000 0.000000
vn 1.000000 0.000000 0.000000
vn -1.000000 0.000000 0.000000
vn -1.000000 0.000000 0.000000
vn -1.000000 0.000000 0.000000
vn -1.000000 0.000000 0.000000
s off
g group pasted__pasted__polySurface4 pasted__pasted__pCube7 pasted__group
usemtl lambert2SG
f 9/25/25 10/26/26 12/27/27 11/28/28
f 11/29/29 12/30/30 14/31/31 13/32/32
f 13/33/33 14/34/34 16/35/35 15/36/36
f 15/37/37 16/38/38 10/39/39 9/40/40
f 10/41/41 16/42/42 14/43/43 12/44/44
f 15/45/45 9/46/46 11/47/47 13/48/48
