# This file uses centimeters as units for non-parametric coordinates.

mtllib playerLegs.mtl
g default
v -0.693537 0.088100 1.920902
v 0.693537 0.088100 1.920902
v -0.693537 5.088100 1.920902
v 0.693537 5.088100 1.920902
v -0.693537 5.088100 0.068793
v 0.693537 5.088100 0.068793
v -0.693537 0.088100 0.068793
v 0.693537 0.088100 0.068793
vt 0.191316 0.004355
vt 0.240048 0.004355
vt 0.240048 0.334643
vt 0.191316 0.334643
vt 0.444279 0.385755
vt 0.552067 0.385755
vt 0.552067 0.485806
vt 0.444279 0.485806
vt 0.238097 0.331496
vt 0.189365 0.331496
vt 0.189365 0.001207
vt 0.238097 0.001207
vt 0.445852 0.385755
vt 0.553640 0.385755
vt 0.553640 0.485806
vt 0.445852 0.485806
vt 0.059191 0.004520
vt 0.122722 0.004520
vt 0.122722 0.336425
vt 0.059191 0.336425
vt 0.010108 0.004520
vt 0.057913 0.004520
vt 0.057913 0.336425
vt 0.010108 0.336425
vn 0.000000 0.000000 1.000000
vn 0.000000 0.000000 1.000000
vn 0.000000 0.000000 1.000000
vn 0.000000 0.000000 1.000000
vn 0.000000 1.000000 0.000000
vn 0.000000 1.000000 0.000000
vn 0.000000 1.000000 0.000000
vn 0.000000 1.000000 0.000000
vn 0.000000 0.000000 -1.000000
vn 0.000000 0.000000 -1.000000
vn 0.000000 0.000000 -1.000000
vn 0.000000 0.000000 -1.000000
vn 0.000000 -1.000000 0.000000
vn 0.000000 -1.000000 0.000000
vn 0.000000 -1.000000 0.000000
vn 0.000000 -1.000000 0.000000
vn 1.000000 0.000000 0.000000
vn 1.000000 0.000000 0.000000
vn 1.000000 0.000000 0.000000
vn 1.000000 0.000000 0.000000
vn -1.000000 0.000000 0.000000
vn -1.000000 0.000000 0.000000
vn -1.000000 0.000000 0.000000
vn -1.000000 0.000000 0.000000
s off
g pasted__polySurface2 pasted__pCube7 group
usemtl lambert2SG
f 1/1/1 2/2/2 4/3/3 3/4/4
f 3/5/5 4/6/6 6/7/7 5/8/8
f 5/9/9 6/10/10 8/11/11 7/12/12
f 7/13/13 8/14/14 2/15/15 1/16/16
f 2/17/17 8/18/18 6/19/19 4/20/20
f 7/21/21 1/22/22 3/23/23 5/24/24
g default
v -0.693537 0.089148 -0.087386
v 0.693537 0.089148 -0.087386
v -0.693537 5.089148 -0.087386
v 0.693537 5.089148 -0.087386
v -0.693537 5.089148 -1.935872
v 0.693537 5.089148 -1.935872
v -0.693537 0.089148 -1.935872
v 0.693537 0.089148 -1.935872
vt 0.190492 0.004236
vt 0.239224 0.004237
vt 0.239224 0.334525
vt 0.190492 0.334525
vt 0.445643 0.385491
vt 0.553431 0.385491
vt 0.553431 0.485346
vt 0.445643 0.485346
vt 0.238549 0.332892
vt 0.189817 0.332892
vt 0.189817 0.002604
vt 0.238549 0.002604
vt 0.447216 0.386730
vt 0.555003 0.386730
vt 0.555003 0.486584
vt 0.447216 0.486584
vt 0.060796 0.004639
vt 0.124203 0.004639
vt 0.124203 0.336543
vt 0.060796 0.336543
vt 0.010221 0.004639
vt 0.057934 0.004639
vt 0.057934 0.336543
vt 0.010221 0.336543
vn 0.000000 0.000000 1.000000
vn 0.000000 0.000000 1.000000
vn 0.000000 0.000000 1.000000
vn 0.000000 0.000000 1.000000
vn 0.000000 1.000000 0.000000
vn 0.000000 1.000000 0.000000
vn 0.000000 1.000000 0.000000
vn 0.000000 1.000000 0.000000
vn 0.000000 0.000000 -1.000000
vn 0.000000 0.000000 -1.000000
vn 0.000000 0.000000 -1.000000
vn 0.000000 0.000000 -1.000000
vn 0.000000 -1.000000 0.000000
vn 0.000000 -1.000000 0.000000
vn 0.000000 -1.000000 0.000000
vn 0.000000 -1.000000 0.000000
vn 1.000000 0.000000 0.000000
vn 1.000000 0.000000 0.000000
vn 1.000000 0.000000 0.000000
vn 1.000000 0.000000 0.000000
vn -1.000000 0.000000 0.000000
vn -1.000000 0.000000 0.000000
vn -1.000000 0.000000 0.000000
vn -1.000000 0.000000 0.000000
s off
g pasted__pCube7 group pasted__polySurface6
usemtl lambert2SG
f 9/25/25 10/26/26 12/27/27 11/28/28
f 11/29/29 12/30/30 14/31/31 13/32/32
f 13/33/33 14/34/34 16/35/35 15/36/36
f 15/37/37 16/38/38 10/39/39 9/40/40
f 10/41/41 16/42/42 14/43/43 12/44/44
f 15/45/45 9/46/46 11/47/47 13/48/48
