# This file uses centimeters as units for non-parametric coordinates.

mtllib PotatoChips.mtl
g default
v 0.467416 0.001240 -0.031216
v 0.385360 0.195746 0.124864
v 0.437370 0.195746 0.000000
v 0.385360 0.195746 -0.124864
v 0.385360 0.390252 0.145375
v 0.419109 0.390252 0.000000
v 0.385360 0.390252 -0.145375
v 0.385360 0.584758 0.134540
v 0.419109 0.584758 0.000000
v 0.385360 0.584758 -0.134540
v 0.385360 0.779264 0.144443
v 0.406085 0.779264 0.000000
v 0.385360 0.779264 -0.144443
v 0.385360 0.973770 0.124864
v 0.406085 0.973770 0.000000
v 0.385360 0.973770 -0.124864
v 0.467416 1.168276 -0.031216
v -0.467416 1.168276 -0.031216
v -0.385360 0.973770 0.124864
v -0.406085 0.973770 0.000000
v -0.385360 0.973770 -0.124864
v -0.385360 0.779264 0.144443
v -0.406085 0.779264 0.000000
v -0.385360 0.779264 -0.144443
v -0.385360 0.584758 0.134540
v -0.419109 0.584758 0.000000
v -0.385360 0.584758 -0.134540
v -0.385360 0.390252 0.145375
v -0.419109 0.390252 0.000000
v -0.385360 0.390252 -0.145375
v -0.385360 0.195746 0.124864
v -0.437370 0.195746 0.000000
v -0.385360 0.195746 -0.124864
v -0.467416 0.001240 -0.031216
vt 0.898981 0.018416
vt 0.840389 0.205197
vt 0.966313 0.205197
vt 0.898981 0.018416
vt 0.741725 0.205197
vt 0.840389 0.205197
vt 0.966313 0.205197
vt 0.840389 0.205197
vt 0.840389 0.391978
vt 0.966313 0.391978
vt 0.840389 0.205197
vt 0.741725 0.205197
vt 0.741725 0.391978
vt 0.840389 0.391978
vt 0.966313 0.391978
vt 0.840389 0.391978
vt 0.840389 0.578759
vt 0.966313 0.578759
vt 0.840389 0.391978
vt 0.741725 0.391978
vt 0.741725 0.578759
vt 0.840389 0.578759
vt 0.966313 0.578759
vt 0.840389 0.578759
vt 0.840389 0.765540
vt 0.966313 0.765540
vt 0.840389 0.578759
vt 0.741725 0.578759
vt 0.741725 0.765540
vt 0.840389 0.765540
vt 0.966313 0.765540
vt 0.840389 0.765540
vt 0.840389 0.952321
vt 0.966313 0.952321
vt 0.840389 0.765540
vt 0.741725 0.765540
vt 0.741725 0.952321
vt 0.840389 0.952321
vt 0.966313 0.926532
vt 0.840389 0.926532
vt 0.898981 0.998105
vt 0.840389 0.926532
vt 0.741725 0.926532
vt 0.898981 0.998105
vt 0.574940 0.985532
vt 0.608350 0.925201
vt 0.752658 0.923072
vt 0.574940 0.985532
vt 0.464042 0.927330
vt 0.608350 0.925201
vt 0.752658 0.923072
vt 0.608350 0.925201
vt 0.605683 0.744406
vt 0.749991 0.742277
vt 0.608350 0.925201
vt 0.464042 0.927330
vt 0.461375 0.746534
vt 0.605683 0.744406
vt 0.749991 0.742277
vt 0.605683 0.744406
vt 0.603016 0.563610
vt 0.747324 0.561481
vt 0.605683 0.744406
vt 0.461375 0.746534
vt 0.458708 0.565739
vt 0.603016 0.563610
vt 0.747324 0.561481
vt 0.603016 0.563610
vt 0.600348 0.382814
vt 0.744656 0.380685
vt 0.603016 0.563610
vt 0.458708 0.565739
vt 0.456040 0.384943
vt 0.600348 0.382814
vt 0.744656 0.380685
vt 0.600348 0.382814
vt 0.597681 0.202018
vt 0.741989 0.199890
vt 0.600348 0.382814
vt 0.456040 0.384943
vt 0.453373 0.204147
vt 0.597681 0.202018
vt 0.741989 0.199890
vt 0.597681 0.202018
vt 0.558937 0.021755
vt 0.597681 0.202018
vt 0.453373 0.204147
vt 0.558937 0.021755
vt 0.011263 0.256372
vt 0.461066 0.256372
vt 0.461066 0.379934
vt 0.006752 0.379934
vt 0.006752 0.379934
vt 0.461066 0.379934
vt 0.461066 0.503497
vt 0.006752 0.503497
vt 0.006752 0.503497
vt 0.461066 0.503497
vt 0.461066 0.627059
vt 0.006752 0.627059
vt 0.006752 0.627059
vt 0.461066 0.627059
vt 0.461066 0.750621
vt 0.006752 0.750621
vt 0.006752 0.750621
vt 0.461066 0.750621
vt 0.461066 0.874183
vt 0.006752 0.874183
vt 0.006752 0.874183
vt 0.461066 0.874183
vt 0.461066 0.997746
vt 0.011263 0.997746
vt 0.013523 0.246091
vt 0.464632 0.246091
vt 0.480704 0.370122
vt 0.013523 0.370122
vt 0.013523 0.370122
vt 0.480704 0.370122
vt 0.480704 0.494154
vt 0.013523 0.494154
vt 0.013523 0.494154
vt 0.480704 0.494154
vt 0.480704 0.618185
vt 0.013523 0.618185
vt 0.013523 0.618185
vt 0.480704 0.618185
vt 0.480704 0.742216
vt 0.013523 0.742216
vt 0.013523 0.742216
vt 0.480704 0.742216
vt 0.480704 0.866248
vt 0.013523 0.866248
vt 0.013523 0.866248
vt 0.480704 0.866248
vt 0.464632 0.990279
vt 0.013523 0.990279
vn 0.966970 0.178564 -0.181889
vn 0.996725 0.061702 0.052277
vn 0.951141 0.031784 0.307115
vn 0.966970 0.178564 -0.181889
vn 0.949755 0.044814 -0.309771
vn 0.996725 0.061702 0.052277
vn 0.951141 0.031784 0.307115
vn 0.996725 0.061702 0.052277
vn 0.999833 0.018292 0.000000
vn 0.963971 0.016656 0.265484
vn 0.996725 0.061702 0.052277
vn 0.949755 0.044814 -0.309771
vn 0.963971 0.016656 -0.265484
vn 0.999833 0.018292 0.000000
vn 0.963971 0.016656 0.265484
vn 0.999833 0.018292 0.000000
vn 0.999846 0.017564 0.000000
vn 0.976833 0.017125 0.213315
vn 0.999833 0.018292 0.000000
vn 0.963971 0.016656 -0.265484
vn 0.976833 0.017125 -0.213315
vn 0.999846 0.017564 0.000000
vn 0.976833 0.017125 0.213315
vn 0.999846 0.017564 0.000000
vn 0.999832 0.018323 0.000000
vn 0.984573 0.018879 0.173951
vn 0.999846 0.017564 0.000000
vn 0.976833 0.017125 -0.213315
vn 0.984573 0.018879 -0.173951
vn 0.999832 0.018323 0.000000
vn 0.984573 0.018879 0.173951
vn 0.999832 0.018323 0.000000
vn 0.995561 -0.092029 0.019710
vn 0.988200 -0.010183 0.152828
vn 0.999832 0.018323 0.000000
vn 0.984573 0.018879 -0.173951
vn 0.987870 -0.025389 -0.153192
vn 0.995561 -0.092029 0.019710
vn 0.988200 -0.010183 0.152828
vn 0.995561 -0.092029 0.019710
vn 0.948372 -0.309880 -0.067559
vn 0.995561 -0.092029 0.019710
vn 0.987870 -0.025389 -0.153192
vn 0.948372 -0.309880 -0.067559
vn -0.948372 -0.309880 -0.067558
vn -0.995561 -0.092029 0.019710
vn -0.988200 -0.010183 0.152828
vn -0.948372 -0.309880 -0.067558
vn -0.987870 -0.025389 -0.153192
vn -0.995561 -0.092029 0.019710
vn -0.988200 -0.010183 0.152828
vn -0.995561 -0.092029 0.019710
vn -0.999832 0.018323 -0.000000
vn -0.984573 0.018879 0.173951
vn -0.995561 -0.092029 0.019710
vn -0.987870 -0.025389 -0.153192
vn -0.984573 0.018879 -0.173951
vn -0.999832 0.018323 -0.000000
vn -0.984573 0.018879 0.173951
vn -0.999832 0.018323 -0.000000
vn -0.999846 0.017564 -0.000000
vn -0.976833 0.017125 0.213315
vn -0.999832 0.018323 -0.000000
vn -0.984573 0.018879 -0.173951
vn -0.976833 0.017125 -0.213315
vn -0.999846 0.017564 -0.000000
vn -0.976833 0.017125 0.213315
vn -0.999846 0.017564 -0.000000
vn -0.999833 0.018292 -0.000000
vn -0.963971 0.016656 0.265484
vn -0.999846 0.017564 -0.000000
vn -0.976833 0.017125 -0.213315
vn -0.963971 0.016656 -0.265484
vn -0.999833 0.018292 -0.000000
vn -0.963971 0.016656 0.265484
vn -0.999833 0.018292 -0.000000
vn -0.996725 0.061702 0.052277
vn -0.951141 0.031784 0.307115
vn -0.999833 0.018292 -0.000000
vn -0.963971 0.016656 -0.265484
vn -0.949755 0.044814 -0.309771
vn -0.996725 0.061702 0.052277
vn -0.951141 0.031784 0.307115
vn -0.996725 0.061702 0.052277
vn -0.966970 0.178564 -0.181889
vn -0.996725 0.061702 0.052277
vn -0.949755 0.044814 -0.309771
vn -0.966970 0.178564 -0.181889
vn 0.000000 -0.433803 -0.901008
vn 0.000000 -0.433803 -0.901008
vn 0.000000 -0.302119 -0.953270
vn 0.000000 -0.302119 -0.953270
vn 0.000000 -0.302119 -0.953270
vn 0.000000 -0.302119 -0.953270
vn 0.000000 -0.024866 -0.999691
vn 0.000000 -0.024866 -0.999691
vn 0.000000 -0.024866 -0.999691
vn 0.000000 -0.024866 -0.999691
vn -0.000000 0.002397 -0.999997
vn -0.000000 0.002397 -0.999997
vn -0.000000 0.002397 -0.999997
vn -0.000000 0.002397 -0.999997
vn -0.000000 0.024866 -0.999691
vn -0.000000 0.024866 -0.999691
vn -0.000000 0.024866 -0.999691
vn -0.000000 0.024866 -0.999691
vn -0.000000 0.300300 -0.953845
vn -0.000000 0.300300 -0.953845
vn -0.000000 0.300300 -0.953845
vn -0.000000 0.300300 -0.953845
vn 0.000000 0.433803 -0.901008
vn 0.000000 0.433803 -0.901008
vn 0.000000 -0.625855 0.779939
vn 0.000000 -0.625855 0.779939
vn 0.000000 -0.439057 0.898459
vn 0.000000 -0.439057 0.898459
vn 0.000000 -0.439057 0.898459
vn 0.000000 -0.439057 0.898459
vn 0.000000 -0.024866 0.999691
vn 0.000000 -0.024866 0.999691
vn 0.000000 -0.024866 0.999691
vn 0.000000 -0.024866 0.999691
vn 0.000000 0.002397 0.999997
vn 0.000000 0.002397 0.999997
vn 0.000000 0.002397 0.999997
vn 0.000000 0.002397 0.999997
vn 0.000000 0.024866 0.999691
vn 0.000000 0.024866 0.999691
vn 0.000000 0.024866 0.999691
vn 0.000000 0.024866 0.999691
vn 0.000000 0.437490 0.899223
vn 0.000000 0.437490 0.899223
vn 0.000000 0.437490 0.899223
vn 0.000000 0.437490 0.899223
vn 0.000000 0.625855 0.779939
vn 0.000000 0.625855 0.779939
s off
g PotatoChips:pCube1
usemtl initialShadingGroup
f 1/1/1 3/2/2 2/3/3
f 1/4/4 4/5/5 3/6/6
f 2/7/7 3/8/8 6/9/9 5/10/10
f 3/11/11 4/12/12 7/13/13 6/14/14
f 5/15/15 6/16/16 9/17/17 8/18/18
f 6/19/19 7/20/20 10/21/21 9/22/22
f 8/23/23 9/24/24 12/25/25 11/26/26
f 9/27/27 10/28/28 13/29/29 12/30/30
f 11/31/31 12/32/32 15/33/33 14/34/34
f 12/35/35 13/36/36 16/37/37 15/38/38
f 14/39/39 15/40/40 17/41/41
f 15/42/42 16/43/43 17/44/44
f 18/45/45 20/46/46 19/47/47
f 18/48/48 21/49/49 20/50/50
f 19/51/51 20/52/52 23/53/53 22/54/54
f 20/55/55 21/56/56 24/57/57 23/58/58
f 22/59/59 23/60/60 26/61/61 25/62/62
f 23/63/63 24/64/64 27/65/65 26/66/66
f 25/67/67 26/68/68 29/69/69 28/70/70
f 26/71/71 27/72/72 30/73/73 29/74/74
f 28/75/75 29/76/76 32/77/77 31/78/78
f 29/79/79 30/80/80 33/81/81 32/82/82
f 31/83/83 32/84/84 34/85/85
f 32/86/86 33/87/87 34/88/88
f 1/89/89 34/90/90 33/91/91 4/92/92
f 4/93/93 33/94/94 30/95/95 7/96/96
f 7/97/97 30/98/98 27/99/99 10/100/100
f 10/101/101 27/102/102 24/103/103 13/104/104
f 13/105/105 24/106/106 21/107/107 16/108/108
f 16/109/109 21/110/110 18/111/111 17/112/112
f 34/113/113 1/114/114 2/115/115 31/116/116
f 31/117/117 2/118/118 5/119/119 28/120/120
f 28/121/121 5/122/122 8/123/123 25/124/124
f 25/125/125 8/126/126 11/127/127 22/128/128
f 22/129/129 11/130/130 14/131/131 19/132/132
f 19/133/133 14/134/134 17/135/135 18/136/136
